<svg xmlns="http://www.w3.org/2000/svg" version="1.1" xmlns:xlink="http://www.w3.org/1999/xlink" xmlns:svgjs="http://svgjs.dev/svgjs" viewBox="0 0 9.303459472410449 7.9583013909187255"><g transform="matrix(1,0,0,1,0.7166156004630375,5.157173290455688)"><rect width="9.303459472410449" height="7.9583013909187255" x="-0.716615600463038" y="-5.157173290455688" fill="#ffffff"></rect><g><path d=" M 0.7635000000000001 0.7410000000000003 L 0.9075 1.0500000000000003 L 1.053 1.0500000000000003 L 0.5640000000000001 2.220446049250313e-16 L 0.489 2.220446049250313e-16 L 0.045 1.0500000000000003 L 0.114 1.0500000000000003 L 0.246 0.7410000000000003 L 0.7635000000000001 0.7410000000000003 Z M 0.732 0.6735000000000002 L 0.2745 0.6735000000000002 L 0.4905 0.16800000000000026 L 0.4965 0.16800000000000026 L 0.732 0.6735000000000002 Z M 1.4294919433593751 0.6120000000000003 Q 1.468491943359375 0.6225000000000003 1.5134919433593752 0.6292500000000003 Q 1.5584919433593751 0.6360000000000002 1.6124919433593752 0.6360000000000002 Q 1.703991943359375 0.6360000000000002 1.774491943359375 0.6105000000000003 Q 1.844991943359375 0.5850000000000002 1.8922419433593751 0.5407500000000003 Q 1.9394919433593751 0.4965000000000003 1.9634919433593752 0.4387500000000003 Q 1.9874919433593752 0.3810000000000002 1.9874919433593752 0.3150000000000003 Q 1.9874919433593752 0.2520000000000002 1.966491943359375 0.19425000000000026 Q 1.9454919433593751 0.1365000000000003 1.9027419433593753 0.09375000000000022 Q 1.859991943359375 0.05100000000000027 1.7954919433593752 0.0255000000000003 Q 1.730991943359375 2.220446049250313e-16 1.6439919433593753 2.220446049250313e-16 L 1.292991943359375 2.220446049250313e-16 L 1.292991943359375 1.0500000000000003 L 1.4294919433593751 1.0500000000000003 L 1.4294919433593751 0.6120000000000003 Z M 1.4294919433593751 0.06600000000000028 L 1.586991943359375 0.06600000000000028 Q 1.649991943359375 0.06600000000000028 1.697991943359375 0.08850000000000025 Q 1.7459919433593751 0.11100000000000021 1.777491943359375 0.14775000000000027 Q 1.8089919433593753 0.18450000000000022 1.824741943359375 0.2302500000000003 Q 1.8404919433593752 0.27600000000000025 1.8404919433593752 0.3210000000000003 Q 1.8404919433593752 0.36450000000000027 1.826241943359375 0.4087500000000003 Q 1.8119919433593752 0.4530000000000003 1.780491943359375 0.4890000000000002 Q 1.7489919433593752 0.5250000000000002 1.7009919433593752 0.5475000000000002 Q 1.6529919433593752 0.5700000000000003 1.5854919433593753 0.5700000000000003 Q 1.538991943359375 0.5700000000000003 1.4999919433593751 0.5662500000000003 Q 1.4609919433593752 0.5625000000000002 1.4294919433593751 0.5505000000000002 L 1.4294919433593751 0.06600000000000028 Z M 2.6159560546875005 1.0500000000000003 L 2.6159560546875005 0.08250000000000024 L 3.0179560546875 0.08250000000000024 L 3.0179560546875 2.220446049250313e-16 L 2.0774560546875 2.220446049250313e-16 L 2.0774560546875 0.08250000000000024 L 2.4794560546875 0.08250000000000024 L 2.4794560546875 1.0500000000000003 L 2.6159560546875005 1.0500000000000003 Z M 3.3029443359375 2.220446049250313e-16 L 3.3029443359375 1.0500000000000003 L 3.4394443359375004 1.0500000000000003 L 3.4394443359375004 2.220446049250313e-16 L 3.3029443359375 2.220446049250313e-16 Z M 4.262868896484376 1.0500000000000003 L 4.262868896484376 0.08250000000000024 L 4.664868896484376 0.08250000000000024 L 4.664868896484376 2.220446049250313e-16 L 3.7243688964843753 2.220446049250313e-16 L 3.7243688964843753 0.08250000000000024 L 4.126368896484376 0.08250000000000024 L 4.126368896484376 1.0500000000000003 L 4.262868896484376 1.0500000000000003 Z M 4.829857177734376 2.220446049250313e-16 L 4.829857177734376 0.6450000000000002 Q 4.829857177734376 0.7065000000000002 4.841857177734376 0.7807500000000003 Q 4.853857177734376 0.8550000000000002 4.898857177734376 0.9187500000000003 Q 4.943857177734376 0.9825000000000003 5.032357177734376 1.0252500000000002 Q 5.120857177734376 1.0680000000000003 5.273857177734376 1.0680000000000003 Q 5.369857177734376 1.0680000000000003 5.444107177734376 1.0380000000000003 Q 5.5183571777343765 1.0080000000000002 5.568607177734376 0.9555000000000002 Q 5.618857177734376 0.9030000000000002 5.644357177734376 0.8332500000000003 Q 5.669857177734376 0.7635000000000003 5.669857177734376 0.6840000000000003 L 5.669857177734376 2.220446049250313e-16 L 5.603857177734376 2.220446049250313e-16 L 5.603857177734376 0.6345000000000003 Q 5.603857177734376 0.6675000000000002 5.602357177734376 0.7012500000000003 Q 5.600857177734376 0.7350000000000003 5.593357177734376 0.7687500000000003 Q 5.585857177734376 0.8025000000000002 5.570107177734376 0.8355000000000002 Q 5.554357177734376 0.8685000000000003 5.524357177734376 0.9015000000000003 Q 5.4703571777343765 0.9600000000000003 5.402857177734376 0.9810000000000003 Q 5.335357177734376 1.0020000000000002 5.261857177734376 1.0020000000000002 Q 5.198857177734376 1.0020000000000002 5.150107177734376 0.9825000000000003 Q 5.101357177734376 0.9630000000000003 5.057857177734376 0.9240000000000003 Q 5.023357177734376 0.8940000000000002 5.005357177734376 0.8640000000000003 Q 4.987357177734376 0.8340000000000003 4.9783571777343765 0.8047500000000003 Q 4.969357177734376 0.7755000000000003 4.967857177734376 0.7455000000000003 Q 4.966357177734376 0.7155000000000002 4.966357177734376 0.6855000000000002 L 4.966357177734376 2.220446049250313e-16 L 4.829857177734376 2.220446049250313e-16 Z M 5.999813232421877 1.0500000000000003 L 5.999813232421877 2.220446049250313e-16 L 6.344813232421877 2.220446049250313e-16 Q 6.469313232421877 2.220446049250313e-16 6.572813232421876 0.039750000000000174 Q 6.676313232421877 0.07950000000000024 6.750563232421877 0.14925000000000022 Q 6.824813232421876 0.2190000000000002 6.866063232421877 0.3150000000000003 Q 6.907313232421877 0.41100000000000025 6.907313232421877 0.5220000000000002 Q 6.907313232421877 0.6375000000000002 6.864563232421877 0.7342500000000003 Q 6.821813232421877 0.8310000000000003 6.747563232421877 0.9015000000000003 Q 6.673313232421877 0.9720000000000003 6.5743132324218765 1.0110000000000003 Q 6.475313232421876 1.0500000000000003 6.3628132324218765 1.0500000000000003 L 5.999813232421877 1.0500000000000003 Z M 6.136313232421877 0.9840000000000002 L 6.301313232421877 0.9840000000000002 Q 6.424313232421877 0.9840000000000002 6.510563232421877 0.9427500000000003 Q 6.5968132324218764 0.9015000000000003 6.652313232421877 0.8355000000000002 Q 6.707813232421877 0.7695000000000003 6.733313232421876 0.6877500000000003 Q 6.758813232421876 0.6060000000000003 6.758813232421876 0.5250000000000002 Q 6.758813232421876 0.4350000000000003 6.728813232421877 0.35175000000000023 Q 6.698813232421877 0.2685000000000003 6.641063232421876 0.2047500000000002 Q 6.583313232421877 0.14100000000000024 6.497813232421876 0.10350000000000026 Q 6.412313232421877 0.06600000000000028 6.301313232421877 0.06600000000000028 L 6.136313232421877 0.06600000000000028 L 6.136313232421877 0.9840000000000002 Z M 7.147243652343752 2.220446049250313e-16 L 7.147243652343752 1.0500000000000003 L 7.825243652343752 1.0500000000000003 L 7.825243652343752 0.9675000000000002 L 7.283743652343752 0.9675000000000002 L 7.283743652343752 0.5280000000000002 L 7.7487436523437525 0.5280000000000002 L 7.7487436523437525 0.4590000000000003 L 7.283743652343752 0.4590000000000003 L 7.283743652343752 0.08250000000000024 L 7.825243652343752 0.08250000000000024 L 7.825243652343752 2.220446049250313e-16 L 7.147243652343752 2.220446049250313e-16 Z" fill="#102036" fill-rule="nonzero"></path></g><g><path d=" M 0.06975 1.6783875 Q 0.10350000000000001 1.6172625 0.162 1.5831375 Q 0.2205 1.5490125 0.2925 1.5490125 Q 0.38025000000000003 1.5490125 0.442875 1.5906375 Q 0.5055000000000001 1.6322625 0.534 1.7080125 L 0.47250000000000003 1.7080125 Q 0.45 1.6547625 0.403875 1.6247625 Q 0.35775 1.5947625 0.2925 1.5947625 Q 0.23475000000000001 1.5947625 0.18862500000000001 1.6217625 Q 0.14250000000000002 1.6487625000000001 0.11625 1.6993875 Q 0.09 1.7500125 0.09 1.8167625 Q 0.09 1.8835125 0.11625 1.9337625 Q 0.14250000000000002 1.9840125 0.18862500000000001 2.0110125 Q 0.23475000000000001 2.0380125000000002 0.2925 2.0380125000000002 Q 0.35775 2.0380125000000002 0.403875 2.0083875 Q 0.45 1.9787625 0.47250000000000003 1.9262625 L 0.534 1.9262625 Q 0.5055000000000001 2.0012625 0.4425 2.0425125 Q 0.3795 2.0837625 0.2925 2.0837625 Q 0.2205 2.0837625 0.162 2.0496375000000002 Q 0.10350000000000001 2.0155125 0.06975 1.9547625 Q 0.036000000000000004 1.8940125 0.036000000000000004 1.8167625 Q 0.036000000000000004 1.7395125 0.06975 1.6783875 Z M 0.6982470703125 2.0365125 L 0.8864970703124999 2.0365125 L 0.8864970703124999 2.0792625 L 0.6457470703124999 2.0792625 L 0.6457470703124999 1.5550125000000001 L 0.6982470703125 1.5550125000000001 L 0.6982470703125 2.0365125 Z M 1.0192166748046874 1.5550125000000001 L 1.0192166748046874 1.8850125 Q 1.0192166748046874 1.9630125 1.0563416748046874 2.0005125 Q 1.0934666748046875 2.0380125000000002 1.1579666748046873 2.0380125000000002 Q 1.2224666748046875 2.0380125000000002 1.2588416748046873 2.0008875 Q 1.2952166748046874 1.9637625 1.2952166748046874 1.8850125 L 1.2952166748046874 1.5550125000000001 L 1.3477166748046874 1.5550125000000001 L 1.3477166748046874 1.8842625 Q 1.3477166748046874 1.9840125 1.2948416748046874 2.0342625 Q 1.2419666748046874 2.0845125 1.1572166748046875 2.0845125 Q 1.0724666748046874 2.0845125 1.0195916748046874 2.0342625 Q 0.9667166748046874 1.9840125 0.9667166748046874 1.8842625 L 0.9667166748046874 1.5550125000000001 L 1.0192166748046874 1.5550125000000001 Z M 1.792428955078125 1.8535125 Q 1.823178955078125 1.8902625 1.823178955078125 1.9390125 Q 1.823178955078125 1.9787625 1.803303955078125 2.0106375 Q 1.783428955078125 2.0425125 1.745178955078125 2.0608875 Q 1.706928955078125 2.0792625 1.653678955078125 2.0792625 L 1.472178955078125 2.0792625 L 1.472178955078125 1.5550125000000001 L 1.648428955078125 1.5550125000000001 Q 1.727928955078125 1.5550125000000001 1.769553955078125 1.5917625 Q 1.811178955078125 1.6285125 1.811178955078125 1.6870125 Q 1.811178955078125 1.7357624999999999 1.7849289550781249 1.7661375000000001 Q 1.758678955078125 1.7965125 1.717428955078125 1.8085125 Q 1.7616789550781249 1.8167625 1.792428955078125 1.8535125 Z M 1.524678955078125 1.7867625 L 1.646928955078125 1.7867625 Q 1.700178955078125 1.7867625 1.729053955078125 1.7616375 Q 1.757928955078125 1.7365125 1.757928955078125 1.6922625 Q 1.757928955078125 1.6487625000000001 1.729053955078125 1.6240125 Q 1.700178955078125 1.5992625 1.644678955078125 1.5992625 L 1.524678955078125 1.5992625 L 1.524678955078125 1.7867625 Z M 1.738803955078125 2.0080125 Q 1.770678955078125 1.9810125 1.770678955078125 1.9337625 Q 1.770678955078125 1.8865125 1.7373039550781249 1.8583875 Q 1.703928955078125 1.8302625 1.647678955078125 1.8302625 L 1.524678955078125 1.8302625 L 1.524678955078125 2.0350125 L 1.649928955078125 2.0350125 Q 1.706928955078125 2.0350125 1.738803955078125 2.0080125 Z" fill="#3682ae" fill-rule="nonzero"></path></g><g clip-path="url(&quot;#SvgjsClipPath1179&quot;)"><path d=" M 0 -4.44055768999265 L 5.565091780252681 -4.44055768999265 L 5.565091780252681 -0.25000000000000044 L 0 -0.25000000000000044 Z" fill="url(#gradient-44b23bcc-dad4-4e04-b012-951b56a11871)" transform="matrix(1,0,0,1,0,0)" fill-rule="nonzero" mask="url(#maskedText)"></path></g></g><defs><clipPath id="SvgjsClipPath1179"><path d=" M 0 -4.44055768999265 h 5.565091780252681 v 4.19055768999265 h -5.565091780252681 Z"></path></clipPath><linearGradient id="gradient-44b23bcc-dad4-4e04-b012-951b56a11871" x1="0" x2="1" y1="0" y2="1"><stop stop-color="#3682ae" offset="0"></stop><stop stop-color="#102036" offset="1"></stop></linearGradient><mask id="maskedText"><path d=" M 5.475595259808969 -1.9238854803138292 C 5.465827449275466 -1.8963630739957846 5.456254438382235 -1.8688128391577015 5.448518109811539 -1.847245736127889 C 5.405523046352107 -1.8288789129025007 5.360218215729482 -1.85158698525389 5.332250553090821 -1.8125714001599587 L 5.22984159934926 -1.8139628261618819 C 5.224832465742336 -1.8779684222503572 5.219823332135412 -1.9422523035392174 5.215036826688796 -2.005367386986462 C 5.218459734653527 -2.0097364646325016 5.220964301456989 -2.0152465116001186 5.224164581261412 -2.01594222460108 C 5.245091628330341 -2.020060845566773 5.26671438840023 -2.0212296434083887 5.287196179148543 -2.027073632616467 C 5.302388877528768 -2.0331433605018097 5.316879311721114 -2.040841112084993 5.330413870768282 -2.0500321616482022 C 5.36021821572948 -2.0713766365177078 5.38095046315814 -2.095921391191636 5.368872885461444 -2.1374693716090682 C 5.366049384272756 -2.1458927538594317 5.3661572652141345 -2.1550234044433267 5.369178999181866 -2.1633777237648815 C 5.3721833019677705 -2.1717065690083874 5.377934984418247 -2.1787636674416517 5.38548651192441 -2.18338642967254 C 5.410281723278684 -2.1941838954474653 5.410977436279646 -2.2146100291557 5.406664015673684 -2.2370954733467823 C 5.408472869476185 -2.263254282182942 5.410059095118378 -2.2896635476994476 5.411895777440915 -2.315822356535607 C 5.410504351438991 -2.3355527772428806 5.409391210637452 -2.3553110264701926 5.408250241315876 -2.375041447177466 C 5.408250241315876 -2.400087115212087 5.415290856885608 -2.430141916853632 5.4043820770305295 -2.448953996399636 C 5.388955237990367 -2.4694562455058344 5.366656805727142 -2.483712620231503 5.341573107303707 -2.4891105508151448 C 5.304016550952757 -2.4964144339665557 5.265992195343783 -2.5010640250168095 5.227782288866415 -2.5030248108343782 C 5.214065760648755 -2.5124652550578963 5.1997812863401505 -2.5210526683702907 5.185009853567288 -2.528738363349923 C 5.126987389287082 -2.5553702570267367 5.126291676286121 -2.555815513347352 5.1306329254121215 -2.64030290018414 L 5.168869311944979 -2.601092515449939 C 5.194976606945973 -2.632544382924258 5.20662473606951 -2.6735401400650316 5.200955595549333 -2.7140206497660406 C 5.21278271656568 -2.759937707829512 5.178191866157865 -2.794723357877597 5.171596506908749 -2.8434789249849923 L 5.228032745546761 -2.9513700971741317 C 5.256473493026073 -2.952511066495709 5.288086691789774 -2.9444686242045917 5.306982256895893 -2.9766105648490218 C 5.336341345536476 -3.0160992347836073 5.334504663213938 -3.0624615491676943 5.3352003762149 -3.1081281505508196 C 5.3630288962533665 -3.129027369099709 5.355209082122558 -3.1610023386239083 5.359995587569173 -3.1891648009028373 C 5.373497469231583 -3.1965154979306725 5.3846851455216935 -3.207481540668092 5.392304499333834 -3.2208336567066134 C 5.399932202053675 -3.234232522363592 5.40371650124024 -3.2494756409700276 5.403241107708952 -3.2648862039275075 C 5.396868376620143 -3.3252740924109827 5.426004837100418 -3.3681856703102997 5.4546682127400405 -3.4136296435331173 C 5.46947048027628 -3.4367900128221325 5.464241027092859 -3.4674076177508746 5.442590635043347 -3.4843419129508635 L 5.415290856885608 -3.5302311424942965 C 5.418268508529724 -3.540555523428568 5.426422264900996 -3.5531896715260323 5.423249813616611 -3.5608425145366107 C 5.417450804392711 -3.5741575274554394 5.408684039675261 -3.5859702907717863 5.3976197466611815 -3.5953777079043494 C 5.386608422804276 -3.6047652781051234 5.373581369504231 -3.611488304150322 5.359550331248559 -3.6150246430515076 C 5.343604589266517 -3.628104047469587 5.328382388805476 -3.642547049369552 5.311546134182203 -3.653984571105362 C 5.285214901991452 -3.6681083951005404 5.264853500800035 -3.691245901937173 5.25419155438292 -3.7191589650354535 C 5.257614462347652 -3.7216913603589536 5.263514108595808 -3.7237506708418002 5.264209821596769 -3.7269787791662625 C 5.285359496826005 -3.8353152076760173 5.285359496826005 -3.8353152076760173 5.250768646418189 -3.9232255024775364 C 5.242809689687188 -3.9431785513451176 5.235991702277763 -3.963382056893045 5.228032745546761 -3.983362934280665 C 5.266992673600616 -4.022155891214289 5.2598685724707686 -4.067126779596452 5.245536884650957 -4.113043837659924 C 5.24166872036561 -4.125204900916734 5.230537312350223 -4.1385069334951226 5.233264507313992 -4.148386058108779 C 5.246455225812225 -4.195694542174174 5.263068852275191 -4.242279484718568 5.2787641375768874 -4.29309436230881 L 5.17248701954998 -4.347276490823706 C 5.1064913287901375 -4.37625104687814 5.0372891625397 -4.397288206488829 4.966333343105011 -4.409946317950336 C 4.936697649861894 -4.435284056019423 4.896261427600842 -4.443922037211905 4.858859598716449 -4.432904846982072 L 4.728065554535652 -4.432904846982072 C 4.680951870110525 -4.434268444463957 4.6304431062407065 -4.448043561882998 4.587893299101889 -4.434964157464918 C 4.512561495357758 -4.412005628433183 4.435643465971433 -4.416152077918914 4.360339490747339 -4.404213642822412 C 4.309870548257227 -4.408274723345863 4.259077479599181 -4.404633912217224 4.209703711779113 -4.393416177047486 C 4.157580893747065 -4.383314424273522 4.101395111789399 -4.393416177047486 4.047212983274502 -4.384010137274484 C 4.040617624025385 -4.388824471241139 4.033577008455653 -4.398230511014141 4.0272042773668435 -4.397924397293718 C 3.972344950109864 -4.400065845616572 3.9199678340816653 -4.374976071802309 3.88725465009339 -4.330885492521049 C 3.879216464410281 -4.332266275651507 3.871047847506712 -4.332733053760283 3.86290469505973 -4.332276918522973 C 3.8447048429545734 -4.355235447554708 3.8269502471700307 -4.336395539488666 3.808973023225181 -4.332276918522973 C 3.74070966357082 -4.332276918522973 3.6724463039164585 -4.330662864360741 3.602596718619905 -4.329299266878857 C 3.568093034979431 -4.333185094512554 3.533408771528786 -4.323737515289057 3.505642154805884 -4.302890001362351 C 3.4920908801509283 -4.291868228233866 3.473403584715361 -4.289636585996343 3.4576379577395278 -4.2971573262344265 C 3.4121383274766326 -4.314355351618199 3.377547477068818 -4.289587968783963 3.337029151892809 -4.272835199720806 C 3.2965108267168 -4.256082430657648 3.2446384653650964 -4.288892255783002 3.2052889380307032 -4.24987667068907 L 3.126311598161532 -4.226918141657334 C 3.078530029255483 -4.245730221203338 3.030971088509742 -4.261119392784611 2.987168997969194 -4.217039017043678 L 2.987168997969194 -4.167838193615667 C 2.987168997969194 -4.165305798292167 2.980351010559769 -4.163023859649012 2.9767054744347297 -4.1607140924858195 C 2.887264611031095 -4.230953277062912 2.887264611031095 -4.230953277062912 2.8114875509663477 -4.198366080097866 C 2.7551955937531196 -4.200606102443846 2.698953082643185 -4.192832594039474 2.645379114856735 -4.17540755106613 C 2.58761694542925 -4.161773528473668 2.5290646003416803 -4.151735983601513 2.47005943861439 -4.145352749424585 L 2.253637038275226 -4.108173846653193 C 2.1897425320602153 -4.101159403320433 2.1262479240374788 -4.090886577622196 2.0634012752922546 -4.077395503490647 C 2.030824943504408 -4.066960611983083 1.996812988466531 -4.061701999387497 1.962606375712931 -4.061811532269106 C 1.859779994170792 -4.067015465516299 1.7692259899656184 -4.028695593423329 1.680842610323445 -3.9825559071995498 C 1.6273840233295487 -3.9825559071995498 1.5725340103337289 -3.955005672361467 1.5215521616232563 -3.99090446321109 C 1.4774161288422467 -3.9817210515983956 1.4282709624543128 -3.992518517373321 1.390257204081766 -3.9580946380857367 C 1.3828680734559422 -3.9577568689667215 1.3755750211754967 -3.9562832406423585 1.3686344440118765 -3.9537255604396973 L 1.3152593425780958 -3.9537255604396973 C 1.2937315692954858 -3.95659183084645 1.2719188356510371 -3.95659183084645 1.2503910623684273 -3.9537255604396973 C 1.1862184951597212 -3.9371954195368475 1.123659982113246 -3.9466014593098495 1.0592647867442317 -3.9509427084358504 C 1.0033178530528433 -3.9557086429864654 0.9480681681790766 -3.9666372546397053 0.8945199481165029 -3.9835299054008964 C 0.8699825693974751 -3.991937483465584 0.8449784458922461 -3.9989155944846946 0.8196334006929885 -4.004429123949785 C 0.809037446168871 -4.0071612195051 0.7978426188330636 -4.006399932205891 0.7877140882088648 -4.002258499386785 C 0.7775387278257588 -3.998113288733189 0.7689503715511462 -3.990831220473103 0.7631971620549747 -3.9814705949180493 C 0.7404612611835466 -3.972287183305355 0.7374836095394305 -3.950859222875735 0.7336154452540836 -3.930516574727615 C 0.7134424230179529 -3.926197387385587 0.6940894033714832 -3.9186816516005503 0.6762886939748401 -3.908253758696841 C 0.6296301763106025 -3.8690526086265944 0.6032658539591816 -3.810807516040439 0.6046024263557476 -3.7498816511579216 C 0.6074044832375074 -3.703132297725686 0.6007799282389061 -3.656296693885574 0.5851224623288204 -3.6121583054875455 C 0.5792931155804371 -3.5871181493210633 0.5769241877334714 -3.561397023646698 0.578081846759088 -3.535713360941875 C 0.5171467734174073 -3.5036163355258862 0.4489519041765683 -3.4878090064032907 0.3801097552054291 -3.4898241313984415 C 0.36338406352083163 -3.4907724576788577 0.3466079301664202 -3.4893767882931477 0.33026887581653375 -3.4856776819127098 C 0.2807897671881383 -3.4721251926539765 0.23164460080020466 -3.4562351077120113 0.17476310584157662 -3.438730968607815 C 0.1592904487001887 -3.4238148818671963 0.14109059659503087 -3.392841739064382 0.11515441591917908 -3.3838809556119953 C 0.054376928155165594 -3.363287850783529 0.033672509246545745 -3.3114154894318255 0 -3.265971516209008 C 0.010686151694771606 -3.237948196530271 0.020036534427696706 -3.2140991548573044 0.02913646048027574 -3.1899996565039914 L 0.02913646048027574 -3.1632286202269855 C 0.024963080363902712 -3.1419103529111094 0.0351017697254683 -3.1203487402021803 0.054182128514896455 -3.1099648328733585 C 0.05713257387148851 -3.101798133057795 0.06118677087164137 -3.094073623761892 0.06623187769155292 -3.0870063038416222 C 0.13477182818324485 -3.0194929864950546 0.17967110394374908 -2.931646577398416 0.19424306986850404 -2.8365496234954137 C 0.19424306986850404 -2.829425522365566 0.20470659340296793 -2.823470219077334 0.2101609833305076 -2.817069659468486 L 0.21199766565304645 -2.7658651825977056 C 0.20334299592108307 -2.7392611174409307 0.19446569802881175 -2.712629223764117 0.18581102829684837 -2.6859973300873037 C 0.16875214551326767 -2.6327613712537152 0.14849298292526325 -2.5804159250613576 0.13552489258733735 -2.5253154553851918 C 0.12309604644470862 -2.487352794131463 0.13040112475372712 -2.4456929761177473 0.15500485661426455 -2.4142240033916282 C 0.17686173241037828 -2.386795209362549 0.18891122718523157 -2.352841104574222 0.18923393626158003 -2.3177703529383 C 0.18923393626158003 -2.3069728871633743 0.2031481962808137 -2.297344219230065 0.21041144001085388 -2.2871589808959856 C 0.20971451496265758 -2.278824969451258 0.20971451496265758 -2.270447324306092 0.21041144001085388 -2.2621133128613646 C 0.20191419564409818 -2.2562477693740117 0.19542479166555848 -2.2479125768387016 0.1918219886251573 -2.2382364426683594 C 0.1882033775814551 -2.228538107041409 0.18762102212927223 -2.2179683555842877 0.19015227742284946 -2.207931184346468 L 0.16875214551326767 -2.162041954803035 C 0.20103069320702915 -2.100928815771888 0.24247427039851943 -2.045117005636518 0.29164289000314003 -1.9965457461342688 C 0.32303346060653215 -1.936853570651755 0.37357005299638946 -1.8872909764632437 0.3749336504782743 -1.8128775138803814 C 0.3749336504782743 -1.793147093173108 0.4047379954394732 -1.7740845569467572 0.42043328074116904 -1.7548272210801379 C 0.4281696093118631 -1.7444750116258279 0.43384662739971036 -1.729781553045517 0.44319701013263546 -1.724521962758247 C 0.4810950748314796 -1.7026027663590266 0.5108146092581711 -1.6689264891832196 0.5278513680896542 -1.6285970541856494 L 0.4873330429136451 -1.6003511063466043 L 0.4486514000601751 -1.571882530347252 C 0.43316746180690335 -1.550316499988237 0.406285955286561 -1.5401030617179718 0.380388040405814 -1.5459463496714 C 0.3458703760625417 -1.5468253915973786 0.31218818601587683 -1.5352588682705033 0.28549278707463954 -1.5133591527063541 C 0.2552896776197746 -1.4899207821421223 0.2269153119650955 -1.464216397780195 0.20061580095731246 -1.4364689518400677 C 0.19214715817947026 -1.4219693582938855 0.18648287971681765 -1.4060055334933095 0.18391868893423258 -1.389410924455019 C 0.15592319777553398 -1.3868785291315189 0.12405954233148853 -1.3940026302613666 0.10747374438856205 -1.3607197202953585 C 0.09311422804871272 -1.3235408175239658 0.09859644649629096 -1.2992186910103456 0.13179587090218248 -1.2549713441491819 C 0.1411462536351078 -1.2292577916336374 0.15046880784799455 -1.2035442391180937 0.16001399022118878 -1.177608058442242 C 0.18277771961265543 -1.1360600780248098 0.24071669833274512 -1.149612567283543 0.26537276708682733 -1.1087602998670727 C 0.29002883584090977 -1.0679080324506018 0.3432926231945366 -1.0770914440632962 0.3906011072599316 -1.0539102868712527 C 0.3858146018133153 -0.9850346997760457 0.43882793248659613 -0.9639128530668488 0.49390057364272366 -0.9446555172002289 C 0.5166643030341901 -0.9366130749091113 0.5394002039056182 -0.9625492555849635 0.5356433537004249 -0.9923814290662012 C 0.5335829879070609 -1.0008696424815935 0.5306064203425586 -1.009108856147598 0.5267660558081537 -1.0169540122601681 C 0.5705213065113149 -1.0637875242411572 0.5988715362319249 -1.1229063486020188 0.6079975058004408 -1.18634621373432 C 0.610028987763249 -1.2010396723146313 0.6239154192624443 -1.2143417048930192 0.6321248326737924 -1.2283394504723684 C 0.641447386886679 -1.2202970081812508 0.6498515999382963 -1.2053809214406321 0.65995335271226 -1.2053809214406321 C 0.7250442610822357 -1.1961975098279383 0.7412126312245856 -1.1539816449295826 0.7368713820985845 -1.096126151769608 L 0.6085262476811718 -1.0042920356426652 C 0.6360764825192547 -0.9794968242883901 0.6572261577484902 -0.9604621165820784 0.676789607335533 -0.9420952933566902 C 0.6985446480639507 -0.9581533732248557 0.7213603963654759 -0.972722353497264 0.7450807955099329 -0.9857025842569684 C 0.7729093155484001 -0.9983367323544323 0.7996803518254061 -0.9558704107757308 0.831989263590067 -0.981806591451583 C 0.8347721155939138 -0.9921309723858545 0.8381393665185684 -1.0047372919632802 0.8413118178029537 -1.0166757270597833 C 0.8602463750117346 -1.0250518616921553 0.8799991229312545 -1.0314402622232564 0.9002526232444283 -1.0357382632861327 C 0.9193708165108554 -1.0377975737689802 0.9398526072591676 -1.0127797342543974 0.958497715684941 -1.0318422704807477 C 0.9812614450764074 -1.054800799512484 0.9646478186134422 -1.0777315000241812 0.958497715684941 -1.1027493395387635 C 0.956828177689101 -1.1146294052364079 0.956828177689101 -1.126684579130627 0.958497715684941 -1.1385646448282714 L 0.9976524433790648 -1.1484437694419278 C 1.010397905556683 -1.1048364785416491 1.010397905556683 -1.1048364785416491 1.0381429400350353 -1.123398101407307 L 1.0777429240497747 -1.1493342820831582 C 1.0773943788132643 -1.1366834289851768 1.0751717520374817 -1.1241541911267579 1.071147564800658 -1.1121553793117664 C 1.0551653802029364 -1.086646007237014 1.0546402877104544 -1.0543796093826727 1.069783967318773 -1.0283637054759396 C 1.0740340734108824 -1.0164303764637928 1.0761900383594911 -1.0038523451478922 1.076156698407582 -0.9911848027045478 C 1.065648478657894 -0.9917416287569312 1.0551411446282166 -0.9900725937486077 1.04532269820496 -0.9862869831777767 C 1.0354875523104001 -0.9824838650092542 1.0265577716707033 -0.9766633922780716 1.0191082323287235 -0.9692002718741577 C 1.0039423913903691 -0.9540354629678434 0.9958614488031572 -0.9331866310928367 0.9968454162979494 -0.9117622065147604 C 0.9611414250885955 -0.8979870890957184 0.9247138923582414 -0.8853529409982541 0.8894551574695028 -0.8697689697767128 C 0.8541964225807642 -0.8541849985551706 0.8059695973540999 -0.8591941321620951 0.7845416369244799 -0.8141119296997772 C 0.805023427672792 -0.8042328050861216 0.8300690957074128 -0.7994184711194667 0.8418962167237616 -0.7845023843788481 C 0.8579907873014427 -0.7609179797273646 0.8713508437910154 -0.7355796196206565 0.881718828898809 -0.7089757809944475 C 0.9038423213322506 -0.7124981299925768 0.9263837845576894 -0.7124981299925768 0.9485072769911314 -0.7089757809944475 C 0.9816559797848047 -0.695698358676939 1.0195778337784889 -0.7049189686223536 1.0429294454816518 -0.7319343100261824 C 1.0631886080696562 -0.7505237614118792 1.0832251424973531 -0.7332979075080677 1.103233848405011 -0.7280383172207974 L 1.2040565765043794 -0.702102136544946 C 1.2370333727499636 -0.7215821005718732 1.2695927411949708 -0.7417856061198003 1.3027921656008628 -0.7605420286257281 C 1.3208235445393777 -0.7734170868029127 1.3442701829695074 -0.775939024959889 1.3646271371263372 -0.7671930449149209 C 1.4340314661022755 -0.7341327631092223 1.4784179555636316 -0.7671930449149218 1.5130088059714468 -0.8252711662352032 C 1.515040287934255 -0.8286940741999347 1.5200494215411793 -0.8303081283621663 1.5236949576662184 -0.8325900670053201 C 1.5330305979424865 -0.8271151834858657 1.5404613412523949 -0.8189073689801494 1.5449837754956461 -0.8090749675728155 C 1.5495415601388045 -0.7992221965143207 1.5510066399330213 -0.7882195442849049 1.549185882021455 -0.7775174258491937 C 1.5471265715386082 -0.753195299335573 1.5443993765748385 -0.7288453443019134 1.542117437931684 -0.7059146437902157 C 1.5901494635180793 -0.6795053782737099 1.635426465620666 -0.6567973059223213 1.6816218088845223 -0.6659528890149762 C 1.7523897353423457 -0.6798671490342101 1.8207644090768604 -0.7056641871098694 1.89050268029326 -0.7263407774984509 C 1.8934424152636422 -0.7018228180005233 1.8902387616879275 -0.6769586409949748 1.881180126080374 -0.653986625398435 C 1.8721996336770248 -0.630952951964066 1.8575670364509307 -0.610549618225654 1.8386303189415565 -0.5946562206764217 C 1.7905982933551612 -0.5556962926225677 1.7248395005042623 -0.5632099930329546 1.6722714261515967 -0.5363554711958329 C 1.6681806337059424 -0.5042135305514028 1.664312469420595 -0.47513272711120447 1.6604443051352482 -0.44452135506888935 C 1.6742839764607864 -0.4329210347876682 1.6895570604685548 -0.4231473833558752 1.7058882783580658 -0.4154405516286901 C 1.7218245672353238 -0.40866600406009335 1.739751395092389 -0.40825767075890473 1.7559796144273077 -0.4142995823071143 C 1.8119427682246658 -0.4494191745956604 1.8638151295763694 -0.41911391627376915 1.9170789169299969 -0.4092347916601131 C 1.9202935798413994 -0.367705716429223 1.940863645978523 -0.3294550924630393 1.9737377837283168 -0.3038760147944748 L 2.071582860183569 -0.3038760147944748 C 2.136423311873199 -0.30549006895670594 2.19923228160002 -0.3025124173125895 2.257505202560571 -0.2664744838627744 C 2.296252125283182 -0.24663243002535395 2.341651118695323 -0.2443726140586331 2.382176972332906 -0.26026872389419564 C 2.410395091651913 -0.26861727990573625 2.44022726513315 -0.27198453083039054 2.469335897093387 -0.2774945777980071 C 2.48163610295039 -0.2816131987637003 2.495745162609893 -0.291714951537664 2.5062086861443573 -0.2886259858133946 C 2.550122090765059 -0.276214465876238 2.589276818459183 -0.2902400399756253 2.631826625598 -0.2989503667476665 C 2.690739602519436 -0.31111143000447683 2.7473984693177558 -0.34069314680536733 2.8104578957249235 -0.3295617387899803 C 2.8232033579025417 -0.30663103827828264 2.829937859751851 -0.2806670290823927 2.855957525987818 -0.2673649965040048 L 2.959507449050956 -0.2873458738916246 C 2.961274314041225 -0.31191246660662 2.970432171342499 -0.33536977482111174 2.98577757196727 -0.35463523534463937 C 3.001043447742034 -0.37382498102443273 3.0217994530480494 -0.38790178537135667 3.0452749478095136 -0.3949865894004172 C 3.0921660040743317 -0.4108210173023048 3.125142800319916 -0.46775816930101 3.1844175480018517 -0.4436586709476966 C 3.217394344247436 -0.4665893714593943 3.223377476055707 -0.5154840811669814 3.2699624186001017 -0.5243613790592532 C 3.2778424755140687 -0.5154517097803408 3.2869612800328643 -0.5077199382202107 3.2970395685975307 -0.5014028500275174 C 3.3425670273804635 -0.4784443209957825 3.371453031180393 -0.4899374997716688 3.388066657643358 -0.5360771859954485 C 3.392157450089013 -0.5484608774125665 3.3910164807674352 -0.5649910183154159 3.39875280933813 -0.5730056320864954 C 3.411932152982868 -0.583384724189512 3.4264856154292107 -0.591888291693552 3.4419983294779084 -0.5982739282814222 C 3.472609701520223 -0.6067616268931557 3.5038889580434605 -0.6141083561833107 3.533025418523736 -0.6244327371175826 C 3.547165524395929 -0.6307523169394758 3.5606525523035426 -0.6384418801901885 3.573293287019399 -0.6473912661493184 C 3.618512917473747 -0.6433111777182918 3.663904471398534 -0.6530746806578547 3.7034472752393106 -0.6753867573080159 C 3.781951530267829 -0.6707950515016696 3.8540830542075373 -0.6983452863397526 3.9266876629878986 -0.7213038153714888 C 3.9412301364938798 -0.7253239911345704 3.9547174179612643 -0.7324760495465004 3.966204161442522 -0.7422586909604543 C 3.977718386806094 -0.7520808673371588 3.9869819881733837 -0.7642678183162563 3.993364797000067 -0.7779905106898468 C 4.001546381891377 -0.7793541081717312 4.010061909023147 -0.7802724493330007 4.0186052646749575 -0.7809681623339624 C 4.074262304751893 -0.7713394944006526 4.123741413380288 -0.7997802418799664 4.176532115893262 -0.8076000560107759 C 4.2473141579326334 -0.8019562845937864 4.318500452453294 -0.8109362722458937 4.385663443982345 -0.8339814930072436 L 4.463945070850555 -0.8339814930072436 C 4.5215980674075364 -0.8279356135188798 4.577549059525109 -0.8557646977936799 4.607512405729009 -0.9053894754259519 C 4.625419456849223 -0.9268542430545903 4.6458121278258435 -0.9461165827494087 4.668262064972984 -0.9627718837452721 L 4.720384883005034 -0.8681549156144817 C 4.729095761222911 -0.8655412125965749 4.738144905948234 -0.8642283833099995 4.747239404842154 -0.8642589228090967 C 4.803675643480166 -0.8732197062614833 4.822376408946017 -0.9354164485474583 4.872161631294836 -0.9519465894503085 C 4.90601465153539 -0.9570214060057971 4.939583347296425 -0.9638391765339094 4.972733902713859 -0.9723727231585442 C 5.002092991354441 -0.979496824288391 5.03117379479464 -0.9872888098991619 5.060338083794953 -0.9953312521902791 C 5.095406794800878 -0.9999224743460062 5.126266024261881 -1.0207599293211764 5.143628844270087 -1.0515726911880217 C 5.136588228700355 -1.088974222119723 5.127488302647775 -1.126709695291885 5.1227017972011595 -1.166337507826663 C 5.115846050346095 -1.1929482675959124 5.127216233441626 -1.220910328210567 5.150697288359858 -1.2351852664018317 C 5.165474232500285 -1.2423093675316794 5.187764877051096 -1.2455096473361027 5.193692351819291 -1.2570028261119908 C 5.206338306535854 -1.286712459553915 5.216466387315583 -1.3174318222130186 5.223969781621142 -1.3488369422389344 L 5.132942692575316 -1.4245861737836423 L 5.176856097196017 -1.4704754033270757 C 5.1850376820873265 -1.4720894574893069 5.199619826587484 -1.4704754033270757 5.200760795909062 -1.4760411073347695 C 5.219628532495143 -1.5267724993648955 5.236715243798762 -1.5779491477156378 5.254442011063266 -1.629376252746726 C 5.269069207232688 -1.621783912970571 5.284296417816738 -1.6154082166074444 5.2999694698462 -1.6103137165203756 C 5.335228204734936 -1.6016033897483353 5.354569026161672 -1.6186622725319162 5.355932623643557 -1.6562307745838476 C 5.358237732895779 -1.6773278001924137 5.349675253567174 -1.698152336821468 5.333196722772129 -1.7115260439002822 C 5.333196722772129 -1.7753368403484888 5.333196722772129 -1.7753368403484888 5.38256451732037 -1.7907260119297612 L 5.481105306776584 -1.783156654479298 C 5.492841193194884 -1.8126409339612384 5.502939771091086 -1.8427508612488135 5.511354908058397 -1.8733488879239728 C 5.512568251003634 -1.8790642569988203 5.512568251003634 -1.8849706868330882 5.511354908058397 -1.8906860559079373 C 5.510154118092975 -1.8963916786117578 5.507795749265755 -1.9017903542403347 5.5044256065688195 -1.9065483123298637 C 5.501033666594131 -1.9112711375346758 5.49669243781449 -1.9152332196960065 5.491680144391202 -1.9181806337059433 C 5.4867799551541445 -1.921193478719457 5.481298735077278 -1.9231375100615977 5.475595259808969 -1.9238854803138292 Z" fill="#ffffff" transform="matrix(1,0,0,1,0,0)" fill-rule="nonzero"></path><path d=" M 5.535899662732328 -1.6998380654841263 C 5.530808756201205 -1.7008371262538153 5.525558100253425 -1.7006754212699167 5.520538319671095 -1.6993649806434719 C 5.510344283685489 -1.6966694739190262 5.501915632926776 -1.6895092123521573 5.497607619159396 -1.6798850166165447 C 5.495440629799816 -1.6751284560549644 5.4943752242359345 -1.6699441164807167 5.494490824915088 -1.6647184731955798 C 5.493479913732939 -1.656223668465329 5.495998698911629 -1.6476861352112926 5.501458738780357 -1.6411004223831172 C 5.506918778649084 -1.6345147095549408 5.514841804269107 -1.6304576887434785 5.523376828715017 -1.629877166107419 C 5.533696031578156 -1.627800187510159 5.544399476328778 -1.6305349432502698 5.5524576321552175 -1.6373073809576892 C 5.5605454463278114 -1.6441198724745294 5.565151678339838 -1.6542004733522915 5.565008294692566 -1.664774130235657 C 5.565599964869069 -1.673272211089814 5.562899612885021 -1.681672198995912 5.5574667657621415 -1.6882335726280853 C 5.552054376036436 -1.6947518957830296 5.544321433950392 -1.698912717524811 5.53589966273233 -1.6998380654841263 Z" fill="#ffffff" transform="matrix(1,0,0,1,0,0)" fill-rule="nonzero"></path><path d=" M 5.515167415303669 -2.0560987790165886 C 5.518812951428709 -2.0560987790165886 5.5265492799994025 -2.0687050985940147 5.5251856825175185 -2.0721558350787848 C 5.5229240595793065 -2.0803278092469086 5.51758905550914 -2.087308188404137 5.5102974242969385 -2.091635799105712 C 5.503065420093861 -2.09591533185641 5.494448732449687 -2.0972033419445895 5.486281411503741 -2.0952256781906744 C 5.483776844700278 -2.091997569866212 5.478767711093354 -2.0881015770608267 5.479435595574277 -2.0855691817373265 C 5.4806216084736885 -2.077056226556355 5.484961918951136 -2.06929928723625 5.491596658831089 -2.063835107587283 C 5.498181311031994 -2.0583480794029945 5.506611888015788 -2.05558101871646 5.515167415303669 -2.0560987790165894 Z" fill="#ffffff" transform="matrix(1,0,0,1,0,0)" fill-rule="nonzero"></path><path d=" M 2.2872853296435016 -3.7365517900594956 L 3.277871666528479 -3.7365517900594956 L 3.277871666528479 -3.439746895112686 L 3.1072088519340637 -3.439746895112686 L 3.760179620817045 -1.2508107948799647 L 3.945682680158801 -1.2508107948799647 L 3.945682680158801 -0.9540058999331551 L 3.159149708549755 -0.9540058999331551 L 3.159149708549755 -1.2508107948799647 L 3.4188539916282137 -1.2508107948799647 L 3.248191177033798 -1.8221602176525735 L 2.316965819138183 -1.8221602176525735 L 2.146303004543767 -1.2508107948799647 L 2.406007287622226 -1.2508107948799647 L 2.406007287622226 -0.9540058999331551 L 1.6194743160131801 -0.9540058999331551 L 1.6194743160131801 -1.2508107948799647 L 1.804977375354936 -1.2508107948799647 L 2.4579481442379176 -3.439746895112686 L 2.2872853296435016 -3.439746895112686 L 2.2872853296435016 -3.7365517900594956 Z M 2.7807234674925727 -3.3840959773101593 L 2.406007287622226 -2.1189651125993834 L 3.159149708549755 -2.1189651125993834 L 2.7807234674925727 -3.3840959773101593 Z" fill="NA" transform="matrix(1,0,0,1,0,0)" fill-rule="nonzero"></path></mask></defs></svg>