<svg xmlns="http://www.w3.org/2000/svg" version="1.1" xmlns:xlink="http://www.w3.org/1999/xlink" xmlns:svgjs="http://svgjs.dev/svgjs" viewBox="0 0 14.205091362771809 9.82948388512341"><g transform="matrix(1,0,0,1,0.9813646511124672,7.762119234010943)"><rect width="14.205091362771809" height="9.82948388512341" x="-0.9813646511124675" y="-7.762119234010943" fill="#c8e5ce"></rect><g><path d=" M 1.1355 0.6000000000000001 L 0.8385 0.6000000000000001 L 0.8385 0.6615 L 1.0065 0.6615 L 1.0065 0.933 Q 0.9390000000000001 0.9765 0.8685 0.9975 Q 0.798 1.0185 0.708 1.0185 Q 0.5895 1.0185 0.501 0.9825 Q 0.41250000000000003 0.9465000000000001 0.354 0.88275 Q 0.2955 0.8190000000000001 0.26625 0.7312500000000001 Q 0.23700000000000002 0.6435000000000001 0.23700000000000002 0.5385000000000001 Q 0.23700000000000002 0.43500000000000005 0.26475 0.3480000000000001 Q 0.2925 0.261 0.34800000000000003 0.19800000000000006 Q 0.4035 0.135 0.48375 0.10050000000000003 Q 0.5640000000000001 0.06600000000000006 0.6705 0.06600000000000006 Q 0.741 0.06600000000000006 0.8025 0.08100000000000007 Q 0.864 0.09600000000000009 0.912 0.12 Q 0.96 0.14400000000000002 0.99075 0.17475000000000007 Q 1.0215 0.20550000000000002 1.0305 0.237 L 1.1385 0.237 Q 1.125 0.20400000000000007 1.09275 0.16275000000000006 Q 1.0605 0.12150000000000005 1.0050000000000001 0.08550000000000002 Q 0.9495 0.0495000000000001 0.86775 0.02475000000000005 Q 0.786 0 0.675 0 Q 0.5475 0 0.44025000000000003 0.03600000000000003 Q 0.333 0.07200000000000006 0.255 0.13950000000000007 Q 0.177 0.20700000000000007 0.1335 0.30525 Q 0.09 0.4035000000000001 0.09 0.528 Q 0.09 0.6345000000000001 0.12375 0.7342500000000001 Q 0.1575 0.8340000000000001 0.22725 0.9127500000000001 Q 0.297 0.9915 0.405 1.03875 Q 0.513 1.086 0.663 1.086 Q 0.7755 1.086 0.8625 1.06125 Q 0.9495 1.0365 1.0065 1.0065 L 1.0065 1.068 L 1.1355 1.068 L 1.1355 0.6000000000000001 Z M 1.706933349609375 0.018000000000000016 L 1.706933349609375 0.7755000000000001 Q 1.706933349609375 0.8115000000000001 1.704683349609375 0.8542500000000001 Q 1.7024333496093749 0.897 1.687433349609375 0.9337500000000001 Q 1.6724333496093748 0.9705 1.6416833496093748 0.9952500000000001 Q 1.610933349609375 1.02 1.553933349609375 1.02 Q 1.504433349609375 1.02 1.472183349609375 1.002 Q 1.439933349609375 0.9840000000000001 1.4211833496093749 0.9570000000000001 Q 1.4024333496093748 0.93 1.394183349609375 0.8992500000000001 Q 1.3859333496093749 0.8685 1.3859333496093749 0.8445 L 1.2554333496093748 0.8445 Q 1.258433349609375 0.9600000000000001 1.330433349609375 1.0230000000000001 Q 1.4024333496093748 1.086 1.546433349609375 1.086 Q 1.6499333496093749 1.086 1.709933349609375 1.05525 Q 1.7699333496093748 1.0245 1.799183349609375 0.9772500000000001 Q 1.8284333496093748 0.93 1.835933349609375 0.8745 Q 1.8434333496093749 0.8190000000000001 1.8434333496093749 0.7710000000000001 L 1.8434333496093749 0.018000000000000016 L 1.706933349609375 0.018000000000000016 Z M 2.158392333984375 0.018000000000000016 L 2.158392333984375 0.663 Q 2.158392333984375 0.7245 2.170392333984375 0.7987500000000001 Q 2.182392333984375 0.873 2.227392333984375 0.9367500000000001 Q 2.272392333984375 1.0005000000000002 2.360892333984375 1.04325 Q 2.449392333984375 1.086 2.602392333984375 1.086 Q 2.698392333984375 1.086 2.7726423339843747 1.056 Q 2.846892333984375 1.026 2.897142333984375 0.9735 Q 2.947392333984375 0.921 2.9728923339843747 0.8512500000000001 Q 2.9983923339843748 0.7815000000000001 2.9983923339843748 0.7020000000000001 L 2.9983923339843748 0.018000000000000016 L 2.932392333984375 0.018000000000000016 L 2.932392333984375 0.6525000000000001 Q 2.932392333984375 0.6855 2.930892333984375 0.7192500000000001 Q 2.929392333984375 0.7530000000000001 2.921892333984375 0.7867500000000001 Q 2.9143923339843747 0.8205 2.898642333984375 0.8535 Q 2.882892333984375 0.8865000000000001 2.852892333984375 0.9195000000000001 Q 2.7988923339843748 0.9780000000000001 2.731392333984375 0.9990000000000001 Q 2.663892333984375 1.02 2.590392333984375 1.02 Q 2.5273923339843747 1.02 2.478642333984375 1.0005000000000002 Q 2.429892333984375 0.9810000000000001 2.3863923339843747 0.9420000000000001 Q 2.3518923339843747 0.912 2.333892333984375 0.8820000000000001 Q 2.3158923339843747 0.8520000000000001 2.3068923339843748 0.8227500000000001 Q 2.297892333984375 0.7935000000000001 2.296392333984375 0.7635000000000001 Q 2.2948923339843748 0.7335 2.2948923339843748 0.7035 L 2.2948923339843748 0.018000000000000016 L 2.158392333984375 0.018000000000000016 Z M 3.188848388671875 0.8025 Q 3.191848388671875 0.867 3.2225983886718748 0.9195000000000001 Q 3.253348388671875 0.9720000000000001 3.306598388671875 1.00875 Q 3.359848388671875 1.0455 3.4318483886718747 1.06575 Q 3.5038483886718748 1.086 3.589348388671875 1.086 Q 3.676348388671875 1.086 3.746098388671875 1.0650000000000002 Q 3.815848388671875 1.044 3.865348388671875 1.0050000000000001 Q 3.914848388671875 0.9660000000000001 3.941848388671875 0.9105000000000001 Q 3.968848388671875 0.8550000000000001 3.968848388671875 0.7875000000000001 Q 3.968848388671875 0.6945000000000001 3.922348388671875 0.6352500000000001 Q 3.875848388671875 0.5760000000000001 3.8060983886718747 0.53625 Q 3.7363483886718747 0.49650000000000005 3.654598388671875 0.46950000000000003 Q 3.5728483886718747 0.4425 3.5030983886718747 0.4125000000000001 Q 3.4333483886718748 0.38250000000000006 3.3868483886718748 0.3435 Q 3.340348388671875 0.3045 3.340348388671875 0.24 Q 3.340348388671875 0.20400000000000007 3.356098388671875 0.1725 Q 3.371848388671875 0.14100000000000001 3.402598388671875 0.11775000000000002 Q 3.4333483886718748 0.09450000000000003 3.478348388671875 0.08025000000000004 Q 3.523348388671875 0.06600000000000006 3.581848388671875 0.06600000000000006 Q 3.679348388671875 0.06600000000000006 3.747598388671875 0.10725000000000007 Q 3.815848388671875 0.14850000000000008 3.827848388671875 0.237 L 3.929848388671875 0.237 Q 3.920848388671875 0.1815 3.889348388671875 0.1372500000000001 Q 3.857848388671875 0.09300000000000008 3.809848388671875 0.06225000000000014 Q 3.7618483886718748 0.031500000000000083 3.701098388671875 0.01574999999999993 Q 3.640348388671875 0 3.5743483886718748 0 Q 3.505348388671875 0 3.443098388671875 0.018000000000000016 Q 3.380848388671875 0.03600000000000003 3.333598388671875 0.07050000000000001 Q 3.286348388671875 0.1050000000000001 3.258598388671875 0.15750000000000008 Q 3.230848388671875 0.21000000000000008 3.230848388671875 0.2775000000000001 Q 3.230848388671875 0.366 3.275848388671875 0.42000000000000004 Q 3.320848388671875 0.4740000000000001 3.389098388671875 0.51 Q 3.4573483886718748 0.546 3.536848388671875 0.5715000000000001 Q 3.616348388671875 0.597 3.684598388671875 0.6292500000000001 Q 3.752848388671875 0.6615 3.797848388671875 0.7080000000000001 Q 3.842848388671875 0.7545000000000001 3.842848388671875 0.8325 Q 3.842848388671875 0.93 3.771598388671875 0.9750000000000001 Q 3.700348388671875 1.02 3.581848388671875 1.02 Q 3.487348388671875 1.02 3.430348388671875 0.9952500000000001 Q 3.373348388671875 0.9705 3.343348388671875 0.936 Q 3.313348388671875 0.9015000000000001 3.302848388671875 0.86475 Q 3.2923483886718747 0.8280000000000001 3.290848388671875 0.8025 L 3.188848388671875 0.8025 Z M 4.6542568359375 1.068 L 4.6542568359375 0.10050000000000003 L 5.0562568359375 0.10050000000000003 L 5.0562568359375 0.018000000000000016 L 4.1157568359375 0.018000000000000016 L 4.1157568359375 0.10050000000000003 L 4.5177568359375 0.10050000000000003 L 4.5177568359375 1.068 L 4.6542568359375 1.068 Z M 5.561745117187499 0.6105 L 5.561745117187499 0.7230000000000001 L 5.191245117187499 0.7230000000000001 L 5.191245117187499 0.6105 L 5.561745117187499 0.6105 Z M 6.73016015625 0.8745 Q 6.57716015625 1.0185 6.36716015625 1.0185 Q 6.25016015625 1.0185 6.16016015625 0.9780000000000001 Q 6.07016015625 0.9375 6.0101601562499996 0.8700000000000001 Q 5.95016015625 0.8025 5.91941015625 0.7140000000000001 Q 5.88866015625 0.6255000000000001 5.88866015625 0.5295000000000001 Q 5.88866015625 0.4275000000000001 5.92091015625 0.34275 Q 5.95316015625 0.258 6.01166015625 0.1965 Q 6.07016015625 0.135 6.1504101562499995 0.10050000000000003 Q 6.23066015625 0.06600000000000006 6.32516015625 0.06600000000000006 Q 6.38966015625 0.06600000000000006 6.44291015625 0.08100000000000007 Q 6.49616015625 0.09600000000000009 6.53741015625 0.12 Q 6.57866015625 0.14400000000000002 6.60491015625 0.17475000000000007 Q 6.63116015625 0.20550000000000002 6.6416601562499995 0.237 L 6.75266015625 0.237 Q 6.73016015625 0.18600000000000005 6.69491015625 0.14250000000000007 Q 6.65966015625 0.09900000000000009 6.60716015625 0.06750000000000012 Q 6.55466015625 0.03600000000000003 6.48416015625 0.018000000000000016 Q 6.41366015625 0 6.32366015625 0 Q 6.19316015625 0 6.08591015625 0.03750000000000009 Q 5.97866015625 0.07500000000000007 5.90216015625 0.14475000000000005 Q 5.82566015625 0.21450000000000002 5.78366015625 0.3127500000000001 Q 5.74166015625 0.41100000000000003 5.74166015625 0.5325000000000001 Q 5.74166015625 0.6375000000000001 5.7754101562499995 0.7372500000000001 Q 5.80916015625 0.8370000000000001 5.87966015625 0.91425 Q 5.95016015625 0.9915 6.05966015625 1.03875 Q 6.16916015625 1.086 6.32066015625 1.086 Q 6.41666015625 1.086 6.49241015625 1.068 Q 6.56816015625 1.05 6.62441015625 1.0237500000000002 Q 6.68066015625 0.9975 6.71816015625 0.9675 Q 6.75566015625 0.9375 6.77516015625 0.915 L 6.73016015625 0.8745 Z M 6.895118408203126 0.543 Q 6.895118408203126 0.627 6.927368408203125 0.7222500000000001 Q 6.959618408203125 0.8175000000000001 7.028618408203125 0.8985000000000001 Q 7.097618408203125 0.9795 7.204118408203126 1.03275 Q 7.310618408203125 1.086 7.459118408203126 1.086 Q 7.559618408203125 1.086 7.6413684082031255 1.06125 Q 7.723118408203126 1.0365 7.788368408203126 0.9945 Q 7.8536184082031255 0.9525 7.9016184082031256 0.89775 Q 7.949618408203126 0.8430000000000001 7.980368408203125 0.7822500000000001 Q 8.011118408203126 0.7215 8.026868408203125 0.66 Q 8.042618408203126 0.5985 8.042618408203126 0.543 Q 8.042618408203126 0.4590000000000001 8.008118408203126 0.36375 Q 7.973618408203126 0.26850000000000007 7.9016184082031256 0.1875 Q 7.8296184082031255 0.10650000000000004 7.719368408203126 0.05325000000000002 Q 7.609118408203125 0 7.459118408203126 0 Q 7.310618408203125 0 7.204118408203126 0.05249999999999999 Q 7.097618408203125 0.1050000000000001 7.028618408203125 0.18525000000000003 Q 6.959618408203125 0.26550000000000007 6.927368408203125 0.36150000000000004 Q 6.895118408203126 0.4575 6.895118408203126 0.543 Z M 7.042118408203126 0.543 Q 7.042118408203126 0.43800000000000006 7.074368408203125 0.35025000000000006 Q 7.106618408203126 0.26250000000000007 7.162868408203125 0.1995 Q 7.2191184082031254 0.13650000000000007 7.295618408203126 0.10125000000000006 Q 7.372118408203125 0.06600000000000006 7.462118408203126 0.06600000000000006 Q 7.550618408203126 0.06600000000000006 7.629368408203126 0.10125000000000006 Q 7.708118408203125 0.13650000000000007 7.767368408203126 0.1995 Q 7.826618408203125 0.26250000000000007 7.861118408203126 0.35025000000000006 Q 7.895618408203125 0.43800000000000006 7.895618408203125 0.543 Q 7.895618408203125 0.6480000000000001 7.861118408203126 0.7357500000000001 Q 7.826618408203125 0.8235000000000001 7.767368408203126 0.8865000000000001 Q 7.708118408203125 0.9495 7.629368408203126 0.98475 Q 7.550618408203126 1.02 7.462118408203126 1.02 Q 7.372118408203125 1.02 7.295618408203126 0.98475 Q 7.2191184082031254 0.9495 7.162868408203125 0.8865000000000001 Q 7.106618408203126 0.8235000000000001 7.074368408203125 0.7357500000000001 Q 7.042118408203126 0.6480000000000001 7.042118408203126 0.543 Z M 8.327603759765626 1.068 L 8.327603759765626 0.018000000000000016 L 8.672603759765625 0.018000000000000016 Q 8.797103759765626 0.018000000000000016 8.900603759765627 0.05774999999999997 Q 9.004103759765625 0.09750000000000003 9.078353759765626 0.16725 Q 9.152603759765626 0.237 9.193853759765625 0.3330000000000001 Q 9.235103759765625 0.42900000000000005 9.235103759765625 0.54 Q 9.235103759765625 0.6555 9.192353759765625 0.7522500000000001 Q 9.149603759765625 0.8490000000000001 9.075353759765626 0.9195000000000001 Q 9.001103759765627 0.9900000000000001 8.902103759765627 1.0290000000000001 Q 8.803103759765627 1.068 8.690603759765626 1.068 L 8.327603759765626 1.068 Z M 8.464103759765626 1.002 L 8.629103759765625 1.002 Q 8.752103759765626 1.002 8.838353759765626 0.9607500000000001 Q 8.924603759765626 0.9195000000000001 8.980103759765626 0.8535 Q 9.035603759765626 0.7875000000000001 9.061103759765626 0.7057500000000001 Q 9.086603759765627 0.6240000000000001 9.086603759765627 0.543 Q 9.086603759765627 0.45300000000000007 9.056603759765625 0.36975 Q 9.026603759765626 0.2865000000000001 8.968853759765626 0.22275 Q 8.911103759765625 0.15900000000000003 8.825603759765626 0.12150000000000005 Q 8.740103759765626 0.08400000000000007 8.629103759765625 0.08400000000000007 L 8.464103759765626 0.08400000000000007 L 8.464103759765626 1.002 Z M 9.475034179687501 0.018000000000000016 L 9.475034179687501 1.068 L 10.153034179687502 1.068 L 10.153034179687502 0.9855 L 9.611534179687501 0.9855 L 9.611534179687501 0.546 L 10.076534179687501 0.546 L 10.076534179687501 0.4770000000000001 L 9.611534179687501 0.4770000000000001 L 9.611534179687501 0.10050000000000003 L 10.153034179687502 0.10050000000000003 L 10.153034179687502 0.018000000000000016 L 9.475034179687501 0.018000000000000016 Z M 10.393018798828127 0.018000000000000016 L 10.393018798828127 1.068 L 10.529518798828127 1.068 L 10.529518798828127 0.6045 L 10.595518798828127 0.6045 Q 10.637518798828127 0.6045 10.665268798828127 0.6120000000000001 Q 10.693018798828128 0.6195 10.715518798828127 0.6375000000000001 Q 10.738018798828127 0.6555 10.757518798828126 0.684 Q 10.777018798828127 0.7125000000000001 10.804018798828126 0.7545000000000001 L 10.922518798828127 0.93 Q 10.945018798828126 0.9645 10.966768798828127 0.9930000000000001 Q 10.988518798828126 1.0215 11.014018798828127 1.04175 Q 11.039518798828126 1.062 11.071768798828128 1.074 Q 11.104018798828127 1.086 11.149018798828127 1.086 Q 11.182018798828127 1.086 11.203018798828127 1.083 Q 11.224018798828126 1.08 11.245018798828127 1.068 L 11.245018798828127 1.0125 Q 11.237518798828127 1.014 11.230018798828127 1.01475 Q 11.222518798828126 1.0155 11.215018798828128 1.0155 Q 11.183518798828127 1.0155 11.159518798828127 1.0065 Q 11.135518798828127 0.9975 11.114518798828128 0.9802500000000001 Q 11.093518798828127 0.9630000000000001 11.074018798828128 0.93825 Q 11.054518798828127 0.9135000000000001 11.033518798828126 0.8820000000000001 Q 10.970518798828127 0.7905 10.936018798828128 0.7357500000000001 Q 10.901518798828127 0.681 10.881268798828128 0.651 Q 10.861018798828127 0.621 10.848268798828126 0.6075 Q 10.835518798828128 0.5940000000000001 10.817518798828127 0.5850000000000001 L 10.802518798828126 0.5775000000000001 L 10.802518798828126 0.5715000000000001 Q 10.874518798828127 0.5670000000000001 10.926268798828128 0.54 Q 10.978018798828128 0.513 11.011018798828127 0.47250000000000003 Q 11.044018798828127 0.43200000000000005 11.059018798828127 0.38475000000000004 Q 11.074018798828128 0.3375 11.074018798828128 0.2925000000000001 Q 11.074018798828128 0.252 11.058268798828127 0.20400000000000007 Q 11.042518798828127 0.15600000000000003 11.004268798828127 0.11475000000000002 Q 10.966018798828127 0.07350000000000001 10.900018798828127 0.04574999999999996 Q 10.834018798828128 0.018000000000000016 10.733518798828127 0.018000000000000016 L 10.393018798828127 0.018000000000000016 Z M 10.529518798828127 0.08400000000000007 L 10.681018798828127 0.08400000000000007 Q 10.738018798828127 0.08400000000000007 10.783768798828127 0.10050000000000003 Q 10.829518798828127 0.11699999999999999 10.862518798828127 0.14625 Q 10.895518798828126 0.1755 10.912768798828127 0.21600000000000008 Q 10.930018798828128 0.25650000000000006 10.930018798828128 0.3045 Q 10.930018798828128 0.3450000000000001 10.914268798828127 0.3862500000000001 Q 10.898518798828126 0.4275000000000001 10.867018798828127 0.46125000000000005 Q 10.835518798828128 0.495 10.789768798828128 0.516 Q 10.744018798828128 0.537 10.684018798828127 0.537 L 10.529518798828127 0.537 L 10.529518798828127 0.08400000000000007 Z M 11.360453613281253 0.8025 Q 11.363453613281253 0.867 11.394203613281253 0.9195000000000001 Q 11.424953613281252 0.9720000000000001 11.478203613281252 1.00875 Q 11.531453613281252 1.0455 11.603453613281253 1.06575 Q 11.675453613281253 1.086 11.760953613281252 1.086 Q 11.847953613281252 1.086 11.917703613281253 1.0650000000000002 Q 11.987453613281252 1.044 12.036953613281252 1.0050000000000001 Q 12.086453613281252 0.9660000000000001 12.113453613281253 0.9105000000000001 Q 12.140453613281252 0.8550000000000001 12.140453613281252 0.7875000000000001 Q 12.140453613281252 0.6945000000000001 12.093953613281252 0.6352500000000001 Q 12.047453613281252 0.5760000000000001 11.977703613281253 0.53625 Q 11.907953613281252 0.49650000000000005 11.826203613281253 0.46950000000000003 Q 11.744453613281253 0.4425 11.674703613281253 0.4125000000000001 Q 11.604953613281253 0.38250000000000006 11.558453613281253 0.3435 Q 11.511953613281253 0.3045 11.511953613281253 0.24 Q 11.511953613281253 0.20400000000000007 11.527703613281252 0.1725 Q 11.543453613281253 0.14100000000000001 11.574203613281252 0.11775000000000002 Q 11.604953613281253 0.09450000000000003 11.649953613281253 0.08025000000000004 Q 11.694953613281253 0.06600000000000006 11.753453613281252 0.06600000000000006 Q 11.850953613281252 0.06600000000000006 11.919203613281253 0.10725000000000007 Q 11.987453613281252 0.14850000000000008 11.999453613281252 0.237 L 12.101453613281253 0.237 Q 12.092453613281252 0.1815 12.060953613281253 0.1372500000000001 Q 12.029453613281254 0.09300000000000008 11.981453613281253 0.06225000000000014 Q 11.933453613281253 0.031500000000000083 11.872703613281253 0.01574999999999993 Q 11.811953613281252 0 11.745953613281253 0 Q 11.676953613281253 0 11.614703613281252 0.018000000000000016 Q 11.552453613281253 0.03600000000000003 11.505203613281253 0.07050000000000001 Q 11.457953613281253 0.1050000000000001 11.430203613281252 0.15750000000000008 Q 11.402453613281253 0.21000000000000008 11.402453613281253 0.2775000000000001 Q 11.402453613281253 0.366 11.447453613281253 0.42000000000000004 Q 11.492453613281253 0.4740000000000001 11.560703613281254 0.51 Q 11.628953613281253 0.546 11.708453613281252 0.5715000000000001 Q 11.787953613281253 0.597 11.856203613281252 0.6292500000000001 Q 11.924453613281253 0.6615 11.969453613281253 0.7080000000000001 Q 12.014453613281253 0.7545000000000001 12.014453613281253 0.8325 Q 12.014453613281253 0.93 11.943203613281252 0.9750000000000001 Q 11.871953613281253 1.02 11.753453613281252 1.02 Q 11.658953613281252 1.02 11.601953613281253 0.9952500000000001 Q 11.544953613281253 0.9705 11.514953613281254 0.936 Q 11.484953613281252 0.9015000000000001 11.474453613281252 0.86475 Q 11.463953613281253 0.8280000000000001 11.462453613281253 0.8025 L 11.360453613281253 0.8025 Z" fill="#231f20" fill-rule="nonzero"></path></g><g></g><g clip-path="url(&quot;#SvgjsClipPath1003&quot;)"><g clip-path="url(&quot;#a&quot;)"><path d=" M 9.586548244227746 -2.2235454366833514 L 2.6558194874592975 -2.2235454366833514 L 2.6558194874592975 -6.424986946649254 C 2.6558194874592975 -6.593402796260992 2.7923465158982976 -6.729929824699991 2.960768036650204 -6.729929824699991 L 9.281605366177011 -6.729929824699991 C 9.45001554464858 -6.729929824699991 9.586548244227746 -6.593402796260992 9.586548244227746 -6.424986946649254 Z" fill="#5a5758" transform="matrix(1,0,0,1,0,0)" fill-rule="nonzero"></path></g><g clip-path="url(&quot;#a&quot;)"><path d=" M 9.586548244227746 -2.2235454366833514 L 2.6558194874592975 -2.2235454366833514 L 2.6558194874592975 -6.424986946649254 C 2.6558194874592975 -6.593402796260992 2.7923465158982976 -6.729929824699991 2.960768036650204 -6.729929824699991 L 9.281605366177011 -6.729929824699991 C 9.45001554464858 -6.729929824699991 9.586548244227746 -6.593402796260992 9.586548244227746 -6.424986946649254 Z" fill="none" transform="matrix(1,0,0,1,0,0)" fill-rule="nonzero" stroke-dasharray="none" stroke-miterlimit="10" stroke-linejoin="miter" stroke-linecap="butt" stroke-width="0.10164951639696891" stroke="#231f20"></path></g><g clip-path="url(&quot;#a&quot;)"><path d=" M 2.655819487459297 -2.2235454366833514 L 9.586548244227746 -2.2235454366833514 L 9.586548244227746 -1.8282499534531613 C 9.586548244227746 -1.6598341038414244 9.450026886928917 -1.5233070754024247 9.281605366177011 -1.5233070754024247 L 2.960773707790373 -1.5233070754024247 C 2.7923465158982967 -1.5233070754024247 2.655819487459297 -1.6598341038414244 2.655819487459297 -1.8282499534531613 Z" fill="#ffffff" transform="matrix(1,0,0,1,0,0)" fill-rule="nonzero"></path></g><g clip-path="url(&quot;#a&quot;)"><path d=" M 2.655819487459297 -2.2235454366833514 L 9.586548244227746 -2.2235454366833514 L 9.586548244227746 -1.8282499534531613 C 9.586548244227746 -1.6598341038414244 9.450026886928917 -1.5233070754024247 9.281605366177011 -1.5233070754024247 L 2.960773707790373 -1.5233070754024247 C 2.7923465158982967 -1.5233070754024247 2.655819487459297 -1.6598341038414244 2.655819487459297 -1.8282499534531613 Z" fill="none" transform="matrix(1,0,0,1,0,0)" fill-rule="nonzero" stroke-dasharray="none" stroke-miterlimit="10" stroke-linejoin="miter" stroke-linecap="butt" stroke-width="0.10164951639696891" stroke="#231f20"></path></g><g clip-path="url(&quot;#SvgjsClipPath1000&quot;)"><path d=" M 5.752166598517679 -1.873433150195848 L 6.490220122448405 -1.873433150195848" fill="none" transform="matrix(1,0,0,1,0,0)" fill-rule="nonzero" stroke-dasharray="none" stroke-miterlimit="10" stroke-linejoin="miter" stroke-linecap="butt" stroke-width="0.10164951639696891" stroke="#231f20"></path></g><g clip-path="url(&quot;#SvgjsClipPath1000&quot;)"><path d=" M 3.0123924256125787 -2.5844227702252356 L 3.2293929330558737 -2.5844227702252356 L 3.2293929330558737 -6.134363697526342 L 3.0123924256125787 -6.134363697526342 Z" fill="#d3d2d2" transform="matrix(1,0,0,1,0,0)" fill-rule="nonzero" stroke-dasharray="none" stroke-miterlimit="10" stroke-linejoin="miter" stroke-linecap="butt" stroke-width="0.10164951639696891" stroke="#231f20"></path></g><g clip-path="url(&quot;#SvgjsClipPath1000&quot;)"><path d=" M 3.0123924256125787 -6.144719199475731 L 9.229963963794127 -6.144719199475731 L 9.229963963794127 -6.361725378059197 L 3.0123924256125787 -6.361725378059197 Z" fill="#d3d2d2" transform="matrix(1,0,0,1,0,0)" fill-rule="nonzero" stroke-dasharray="none" stroke-miterlimit="10" stroke-linejoin="miter" stroke-linecap="butt" stroke-width="0.10154743587391905" stroke="#231f20"></path></g><g clip-path="url(&quot;#SvgjsClipPath1000&quot;)"><path d=" M 3.2293975385577856 -6.096765895052339 L 3.2293975385577856 -6.353005021327961" fill="none" transform="matrix(1,0,0,1,0,0)" fill-rule="nonzero" stroke-dasharray="none" stroke-miterlimit="10" stroke-linejoin="miter" stroke-linecap="butt" stroke-width="0.10164951639696891" stroke="#231f20"></path></g><g clip-path="url(&quot;#SvgjsClipPath1000&quot;)"><path d=" M 3.183025691030566 -6.19108644150104 L 3.058765338778056 -6.19108644150104 L 3.058765338778056 -6.315352464893719 L 3.183025691030566 -6.315352464893719 Z" fill="#f9b25f" transform="matrix(1,0,0,1,0,0)" fill-rule="nonzero"></path></g><g clip-path="url(&quot;#SvgjsClipPath1000&quot;)"><path d=" M 9.229963963794127 -2.5844227702252356 L 3.2293929330558737 -2.5844227702252356 L 3.2293929330558737 -6.134363697526342 L 9.229963963794127 -6.134363697526342 Z" fill="#ffffff" transform="matrix(1,0,0,1,0,0)" fill-rule="nonzero" stroke-dasharray="none" stroke-miterlimit="10" stroke-linejoin="miter" stroke-linecap="butt" stroke-width="0.10164951639696891" stroke="#231f20"></path></g><g clip-path="url(&quot;#SvgjsClipPath1000&quot;)"><path d=" M 3.2293975385577856 -5.608470999016415 L 9.229968569296037 -5.608470999016415" fill="none" transform="matrix(1,0,0,1,0,0)" fill-rule="nonzero" stroke-dasharray="none" stroke-miterlimit="10" stroke-linejoin="miter" stroke-linecap="butt" stroke-width="0.10164951639696891" stroke="#231f20"></path></g><g clip-path="url(&quot;#SvgjsClipPath1000&quot;)"><path d=" M 4.3123257280076785 -6.124029969577089 L 4.3123257280076785 -5.608472287913841" fill="none" transform="matrix(1,0,0,1,0,0)" fill-rule="nonzero" stroke-dasharray="none" stroke-miterlimit="10" stroke-linejoin="miter" stroke-linecap="butt" stroke-width="0.10164951639696891" stroke="#231f20"></path></g><g clip-path="url(&quot;#SvgjsClipPath1000&quot;)"><path d=" M 4.51162143408126 -5.866250484296752 L 9.032455887249622 -5.866250484296752" fill="none" transform="matrix(1,0,0,1,0,0)" fill-rule="nonzero" stroke-dasharray="none" stroke-miterlimit="10" stroke-linejoin="miter" stroke-linecap="butt" stroke-width="0.10164951639696891" stroke="#231f20"></path></g><g clip-path="url(&quot;#SvgjsClipPath1000&quot;)"><path d=" M 3.5385040991311465 -5.804819413420592 L 3.4142437468786366 -5.804819413420592 L 3.4142437468786366 -5.929085436813272 L 3.5385040991311465 -5.929085436813272 Z M 3.82689859016747 -5.804819413420592 L 3.7026382379149605 -5.804819413420592 L 3.7026382379149605 -5.929085436813272 L 3.82689859016747 -5.929085436813272 Z M 4.115293081203793 -5.804819413420592 L 3.991032728951283 -5.804819413420592 L 3.991032728951283 -5.929085436813272 L 4.115293081203793 -5.929085436813272 Z" fill="#231f20" transform="matrix(1,0,0,1,0,0)" fill-rule="nonzero"></path></g><g clip-path="url(&quot;#SvgjsClipPath1000&quot;)"><path d=" M 8.894686156977077 -4.1194926624283115 L 3.5646593975925844 -4.1194926624283115 L 3.5646593975925844 -4.975023854968901 L 8.894686156977077 -4.975023854968901 Z" fill="#75bebc" transform="matrix(1,0,0,1,0,0)" fill-rule="nonzero"></path></g><g clip-path="url(&quot;#SvgjsClipPath1000&quot;)"><path d=" M 4.768435405333965 -3.84066160144645 L 8.894700281213826 -3.84066160144645" fill="none" transform="matrix(1,0,0,1,0,0)" fill-rule="nonzero" stroke-dasharray="none" stroke-miterlimit="10" stroke-linejoin="miter" stroke-linecap="butt" stroke-width="0.10077048967070634" stroke="#231f20"></path></g><g clip-path="url(&quot;#SvgjsClipPath1000&quot;)"><path d=" M 4.768435405333965 -3.5662344425795496 L 8.894700281213826 -3.5662344425795496" fill="none" transform="matrix(1,0,0,1,0,0)" fill-rule="nonzero" stroke-dasharray="none" stroke-miterlimit="10" stroke-linejoin="miter" stroke-linecap="butt" stroke-width="0.10077048967070634" stroke="#231f20"></path></g><g clip-path="url(&quot;#SvgjsClipPath1000&quot;)"><path d=" M 4.768435405333965 -3.2918030303468893 L 8.894700281213826 -3.2918030303468893" fill="none" transform="matrix(1,0,0,1,0,0)" fill-rule="nonzero" stroke-dasharray="none" stroke-miterlimit="10" stroke-linejoin="miter" stroke-linecap="butt" stroke-width="0.10077048967070634" stroke="#231f20"></path></g><g clip-path="url(&quot;#SvgjsClipPath1000&quot;)"><path d=" M 4.768435405333965 -3.01738012484575 L 8.894700281213826 -3.01738012484575" fill="none" transform="matrix(1,0,0,1,0,0)" fill-rule="nonzero" stroke-dasharray="none" stroke-miterlimit="10" stroke-linejoin="miter" stroke-linecap="butt" stroke-width="0.10077048967070634" stroke="#231f20"></path></g><g clip-path="url(&quot;#SvgjsClipPath1000&quot;)"><path d=" M 4.564180839035153 -2.955871109042947 L 3.5646650687327543 -2.955871109042947 L 3.5646650687327543 -3.8922670892595237 L 4.564180839035153 -3.8922670892595237 Z" fill="#f9b25f" transform="matrix(1,0,0,1,0,0)" fill-rule="nonzero"></path></g><g clip-path="url(&quot;#SvgjsClipPath1000&quot;)"><path d=" M 5.426194144789408 -5.187799362985967 L 5.301933792536898 -5.187799362985967 L 5.301933792536898 -5.312059715238477 L 5.426194144789408 -5.312059715238477 Z M 5.714730414329967 -5.187799362985967 L 5.590470062077458 -5.187799362985967 L 5.590470062077458 -5.312059715238477 L 5.714730414329968 -5.312059715238477 Z M 6.003266683870526 -5.187799362985967 L 5.879006331618017 -5.187799362985967 L 5.879006331618017 -5.312059715238477 L 6.003266683870527 -5.312059715238477 Z M 6.291808624551256 -5.187799362985967 L 6.167548272298745 -5.187799362985967 L 6.167548272298745 -5.312059715238477 L 6.291808624551256 -5.312059715238477 Z M 6.580344894091815 -5.187799362985967 L 6.456084541839306 -5.187799362985967 L 6.456084541839306 -5.312059715238477 L 6.580344894091815 -5.312059715238477 Z M 6.868881163632374 -5.187799362985967 L 6.744620811379864 -5.187799362985967 L 6.744620811379864 -5.312059715238477 L 6.868881163632374 -5.312059715238477 Z M 7.157417433172933 -5.187799362985967 L 7.033157080920423 -5.187799362985967 L 7.033157080920423 -5.312059715238477 L 7.157417433172933 -5.312059715238477 Z" fill="#231f20" transform="matrix(1,0,0,1,0,0)" fill-rule="nonzero"></path></g><g clip-path="url(&quot;#SvgjsClipPath1000&quot;)"><path d=" M 7.318358720041354 -0.3035355631994756 L 4.923991998225182 -0.3035355631994756 L 4.923991998225182 -0.5971815300326959 L 7.318358720041354 -0.5971815300326959 Z" fill="#ffffff" transform="matrix(1,0,0,1,0,0)" fill-rule="nonzero"></path></g><g clip-path="url(&quot;#b&quot;)"><path d=" M 7.318358720041354 -0.3035355631994756 L 4.923991998225182 -0.3035355631994756 L 4.923991998225182 -0.5971815300326959 L 7.318358720041354 -0.5971815300326959 Z" fill="none" transform="matrix(1,0,0,1,0,0)" fill-rule="nonzero" stroke-dasharray="none" stroke-miterlimit="10" stroke-linejoin="miter" stroke-linecap="butt" stroke-width="0.10164951639696891" stroke="#231f20"></path></g><g clip-path="url(&quot;#SvgjsClipPath1000&quot;)"><path d=" M 6.702411043069045 -1.5233130942552444 L 6.885810045008432 -0.5971875488855165 L 5.356575756039705 -0.5971875488855165 L 5.539974757979093 -1.5233130942552444 Z" fill="#ffffff" transform="matrix(1,0,0,1,0,0)" fill-rule="nonzero"></path></g><g clip-path="url(&quot;#SvgjsClipPath1000&quot;)"><path d=" M 6.702411043069045 -1.5233130942552444 L 6.885810045008432 -0.5971875488855165 L 5.356575756039705 -0.5971875488855165 L 5.539974757979093 -1.5233130942552444 Z" fill="none" transform="matrix(1,0,0,1,0,0)" fill-rule="nonzero" stroke-dasharray="none" stroke-miterlimit="10" stroke-linejoin="miter" stroke-linecap="butt" stroke-width="0.10164951639696891" stroke="#231f20"></path></g><g clip-path="url(&quot;#c&quot;)"><path d=" M 0.8200827568932381 -0.30082475819848487 L 11.422279303653635 -0.30082475819848487" fill="none" transform="matrix(1,0,0,1,0,0)" fill-rule="nonzero" stroke-dasharray="none" stroke-miterlimit="10" stroke-linejoin="miter" stroke-linecap="butt" stroke-width="0.10164951639696891" stroke="#231f20"></path></g></g></g><defs><clipPath id="SvgjsClipPath1003"><path d=" M 0.8200827568932381 -6.780754582898476 h 10.602196546760398 v 6.530754582898476 h -10.602196546760398 Z"></path></clipPath><clipPath id="a"><path d=" M 0.8200827568932381 -0.25 L 11.422279303653635 -0.25 L 11.422279303653635 -6.780754582898476 L 0.8200827568932381 -6.780754582898476 Z"></path></clipPath><clipPath id="SvgjsClipPath1000"><path d=" M 0.8200827568932381 -6.780754582898476 L 11.422279303653635 -6.780754582898476 L 11.422279303653635 -0.25 L 0.8200827568932381 -0.25 Z"></path></clipPath><clipPath id="b"><path d=" M 0.8200827568932381 -0.25 L 11.422279303653635 -0.25 L 11.422279303653635 -6.780754582898476 L 0.8200827568932381 -6.780754582898476 Z"></path></clipPath><clipPath id="c"><path d=" M 0.8200827568932381 -0.25 L 11.422279303653635 -0.25 L 11.422279303653635 -6.780754582898476 L 0.8200827568932381 -6.780754582898476 Z"></path></clipPath></defs></svg>