<svg xmlns="http://www.w3.org/2000/svg" version="1.1" xmlns:xlink="http://www.w3.org/1999/xlink" xmlns:svgjs="http://svgjs.dev/svgjs" viewBox="0 0 15.458691605681922 12.206032130506047"><g transform="matrix(1,0,0,1,1.143104164657367,8.51656546584868)"><rect width="15.458691605681922" height="12.206032130506047" x="-1.143104164657367" y="-8.51656546584868" fill="#ffffff"></rect><g><path d=" M 2.569509338378907 1.005 L 2.569509338378907 0.9809999999999999 L 2.692509338378907 0.9209999999999999 L 2.692509338378907 0.09899999999999987 L 2.569509338378907 0.038999999999999924 L 2.569509338378907 0.014999999999999902 L 2.9700093383789072 0.014999999999999902 L 2.9700093383789072 0.038999999999999924 L 2.848509338378907 0.09899999999999987 L 2.848509338378907 0.9209999999999999 L 2.9700093383789072 0.9809999999999999 L 2.9700093383789072 1.005 L 2.569509338378907 1.005 Z M 3.173947082519532 1.005 L 3.173947082519532 0.9809999999999999 L 3.295447082519532 0.9209999999999999 L 3.295447082519532 0.10199999999999987 L 3.1754470825195322 0.038999999999999924 L 3.1754470825195322 0.014999999999999902 L 3.4109470825195323 0.014999999999999902 L 3.9854470825195323 0.7214999999999998 L 3.9854470825195323 0.09749999999999992 L 3.830947082519532 0.038999999999999924 L 3.830947082519532 0.014999999999999902 L 4.210447082519532 0.014999999999999902 L 4.210447082519532 0.038999999999999924 L 4.090447082519532 0.09749999999999992 L 4.090447082519532 1.0125 L 4.025947082519532 1.0125 L 3.4004470825195323 0.24449999999999983 L 3.4004470825195323 0.9224999999999999 L 3.554947082519532 0.9809999999999999 L 3.554947082519532 1.005 L 3.173947082519532 1.005 Z M 4.394865051269532 1.005 L 4.394865051269532 0.9809999999999999 L 4.516365051269532 0.9209999999999999 L 4.516365051269532 0.09899999999999987 L 4.394865051269532 0.038999999999999924 L 4.394865051269532 0.014999999999999902 L 4.850865051269532 0.014999999999999902 Q 5.0188650512695325 0.014999999999999902 5.137365051269532 0.0734999999999999 Q 5.255865051269533 0.1319999999999999 5.318115051269532 0.23399999999999987 Q 5.380365051269532 0.33599999999999985 5.380365051269532 0.46499999999999986 Q 5.380365051269532 0.5819999999999999 5.339865051269532 0.6809999999999998 Q 5.2993650512695325 0.7799999999999999 5.226615051269532 0.8519999999999999 Q 5.153865051269532 0.9239999999999999 5.055615051269532 0.9644999999999999 Q 4.957365051269532 1.005 4.840365051269532 1.005 L 4.394865051269532 1.005 Z M 4.810365051269532 0.09749999999999992 L 4.673865051269532 0.09749999999999992 L 4.673865051269532 0.9224999999999999 L 4.832865051269533 0.9224999999999999 Q 4.952865051269532 0.9224999999999999 5.038365051269532 0.8722499999999999 Q 5.123865051269532 0.8219999999999998 5.170365051269532 0.7297499999999999 Q 5.216865051269532 0.6375 5.216865051269532 0.5114999999999998 Q 5.216865051269532 0.3869999999999999 5.169615051269532 0.2932499999999999 Q 5.122365051269532 0.1994999999999999 5.031615051269532 0.14849999999999985 Q 4.940865051269532 0.09749999999999992 4.810365051269532 0.09749999999999992 Z M 6.100232482910157 1.0199999999999998 Q 5.984732482910157 1.0199999999999998 5.893232482910157 0.9779999999999999 Q 5.8017324829101575 0.9359999999999999 5.749982482910157 0.8459999999999999 Q 5.698232482910157 0.7559999999999999 5.698232482910157 0.6104999999999998 L 5.698232482910157 0.09899999999999987 L 5.576732482910157 0.038999999999999924 L 5.576732482910157 0.014999999999999902 L 5.977232482910157 0.014999999999999902 L 5.977232482910157 0.038999999999999924 L 5.855732482910157 0.09899999999999987 L 5.855732482910157 0.5939999999999999 Q 5.855732482910157 0.7184999999999999 5.8947324829101575 0.7912499999999999 Q 5.933732482910157 0.8639999999999999 5.999732482910157 0.8954999999999999 Q 6.065732482910157 0.9269999999999999 6.148232482910157 0.9269999999999999 Q 6.214232482910157 0.9269999999999999 6.2704824829101575 0.8992499999999999 Q 6.326732482910157 0.8714999999999999 6.360482482910157 0.8092499999999999 Q 6.394232482910157 0.7469999999999999 6.394232482910157 0.6464999999999999 L 6.394232482910157 0.09599999999999986 L 6.2472324829101575 0.038999999999999924 L 6.2472324829101575 0.014999999999999902 L 6.6207324829101575 0.014999999999999902 L 6.6207324829101575 0.038999999999999924 L 6.499232482910157 0.09749999999999992 L 6.499232482910157 0.6104999999999998 Q 6.499232482910157 0.7559999999999999 6.447482482910157 0.8459999999999999 Q 6.395732482910157 0.9359999999999999 6.305732482910157 0.9779999999999999 Q 6.215732482910157 1.0199999999999998 6.100232482910157 1.0199999999999998 Z M 7.133700988769532 1.0199999999999998 Q 7.039200988769532 1.0199999999999998 6.972450988769532 1.002 Q 6.905700988769532 0.9839999999999999 6.835200988769532 0.9494999999999999 L 6.820200988769532 0.702 L 6.844200988769532 0.702 L 6.923700988769532 0.8654999999999999 Q 6.976200988769532 0.9089999999999999 7.027200988769533 0.9284999999999999 Q 7.078200988769532 0.9479999999999998 7.129200988769532 0.9479999999999998 Q 7.216200988769532 0.9479999999999998 7.266450988769532 0.9029999999999999 Q 7.316700988769532 0.8579999999999999 7.316700988769532 0.7799999999999999 Q 7.316700988769532 0.7184999999999999 7.288950988769532 0.6817499999999999 Q 7.261200988769533 0.6449999999999999 7.206450988769532 0.6157499999999999 Q 7.151700988769532 0.5864999999999999 7.0722009887695325 0.5474999999999999 Q 6.965700988769532 0.49649999999999983 6.9087009887695325 0.4402499999999999 Q 6.851700988769532 0.3839999999999999 6.851700988769532 0.2819999999999999 Q 6.851700988769532 0.22799999999999987 6.877950988769532 0.17774999999999985 Q 6.904200988769532 0.12749999999999984 6.949200988769532 0.08774999999999988 Q 6.994200988769532 0.04799999999999982 7.0497009887695326 0.02399999999999991 Q 7.105200988769532 -2.220446049250313e-16 7.1652009887695325 -2.220446049250313e-16 Q 7.2357009887695325 -2.220446049250313e-16 7.297200988769532 0.016499999999999848 Q 7.358700988769532 0.03299999999999992 7.418700988769532 0.06449999999999989 L 7.433700988769532 0.3044999999999999 L 7.409700988769532 0.3044999999999999 L 7.331700988769532 0.1439999999999999 Q 7.2837009887695325 0.10649999999999993 7.244700988769532 0.08999999999999986 Q 7.205700988769532 0.0734999999999999 7.156200988769532 0.0734999999999999 Q 7.091700988769532 0.0734999999999999 7.0489509887695325 0.11699999999999988 Q 7.006200988769532 0.16049999999999986 7.006200988769532 0.22649999999999992 Q 7.006200988769532 0.29999999999999993 7.051950988769532 0.34199999999999986 Q 7.097700988769532 0.3839999999999999 7.199700988769532 0.43199999999999983 Q 7.289700988769532 0.4754999999999999 7.348950988769532 0.5152499999999999 Q 7.408200988769532 0.5549999999999999 7.436700988769532 0.6044999999999998 Q 7.465200988769532 0.6539999999999999 7.465200988769532 0.7304999999999999 Q 7.465200988769532 0.8009999999999999 7.435200988769532 0.8549999999999999 Q 7.405200988769532 0.9089999999999999 7.355700988769533 0.9457499999999999 Q 7.3062009887695325 0.9824999999999999 7.248450988769532 1.00125 Q 7.190700988769533 1.0199999999999998 7.133700988769532 1.0199999999999998 Z M 7.850632873535157 1.005 L 7.850632873535157 0.9809999999999999 L 8.002132873535157 0.9209999999999999 L 8.002132873535157 0.09749999999999992 L 7.7651328735351575 0.09749999999999992 L 7.658632873535157 0.32399999999999984 L 7.634632873535157 0.32399999999999984 L 7.634632873535157 0.014999999999999902 L 8.525632873535157 0.014999999999999902 L 8.525632873535157 0.32399999999999984 L 8.501632873535158 0.32399999999999984 L 8.396632873535157 0.09749999999999992 L 8.158132873535157 0.09749999999999992 L 8.158132873535157 0.9209999999999999 L 8.311132873535158 0.9809999999999999 L 8.311132873535158 1.005 L 7.850632873535157 1.005 Z M 8.704121887207032 1.005 L 8.704121887207032 0.9809999999999999 L 8.825621887207031 0.9209999999999999 L 8.825621887207031 0.09899999999999987 L 8.704121887207032 0.038999999999999924 L 8.704121887207032 0.014999999999999902 L 9.121121887207032 0.014999999999999902 Q 9.278621887207033 0.014999999999999902 9.369371887207032 0.08024999999999982 Q 9.460121887207032 0.14549999999999985 9.460121887207032 0.25949999999999984 Q 9.460121887207032 0.3434999999999999 9.403121887207032 0.4079999999999999 Q 9.346121887207032 0.4724999999999999 9.253121887207032 0.5069999999999999 L 9.536621887207032 0.9254999999999999 L 9.637121887207032 0.9809999999999999 L 9.637121887207032 1.005 L 9.395621887207032 1.005 L 9.107621887207031 0.5489999999999999 L 8.983121887207032 0.5489999999999999 L 8.983121887207032 0.9194999999999999 L 9.095621887207033 0.9809999999999999 L 9.095621887207033 1.005 L 8.704121887207032 1.005 Z M 9.071621887207032 0.09749999999999992 L 8.983121887207032 0.09749999999999992 L 8.983121887207032 0.4694999999999999 L 9.080621887207032 0.4694999999999999 Q 9.173621887207032 0.4694999999999999 9.234371887207033 0.4162499999999999 Q 9.295121887207031 0.3629999999999999 9.295121887207031 0.28049999999999986 Q 9.295121887207031 0.19499999999999984 9.235871887207033 0.14624999999999988 Q 9.176621887207032 0.09749999999999992 9.071621887207032 0.09749999999999992 Z M 9.945989318847657 1.005 L 9.945989318847657 0.9809999999999999 L 10.080989318847656 0.9209999999999999 L 10.080989318847656 0.5429999999999999 L 9.749489318847656 0.09149999999999991 L 9.654989318847656 0.038999999999999924 L 9.654989318847656 0.014999999999999902 L 10.041989318847657 0.014999999999999902 L 10.041989318847657 0.038999999999999924 L 9.932489318847656 0.09299999999999986 L 9.932489318847656 0.09899999999999987 L 10.197989318847656 0.4604999999999999 L 10.437989318847656 0.10049999999999992 L 10.437989318847656 0.09449999999999992 L 10.326989318847657 0.038999999999999924 L 10.326989318847657 0.014999999999999902 L 10.650989318847657 0.014999999999999902 L 10.650989318847657 0.038999999999999924 L 10.553489318847657 0.08849999999999991 L 10.236989318847657 0.5414999999999999 L 10.236989318847657 0.9209999999999999 L 10.371989318847657 0.9809999999999999 L 10.371989318847657 1.005 L 9.945989318847657 1.005 Z" fill="#48484a" fill-rule="nonzero"></path></g><g><path d=" M 0.12015 2.5382624999999996 L 0.12015 1.5797624999999997 L 0.21465 1.5797624999999997 L 0.21465 2.5382624999999996 L 0.12015 2.5382624999999996 Z M 0.5710308837890625 1.7539124999999998 L 0.5710308837890625 2.5382624999999996 L 0.4765308837890625 2.5382624999999996 L 0.4765308837890625 1.5797624999999997 L 0.5548308837890625 1.5797624999999997 L 1.1839308837890625 2.3789624999999996 L 1.1839308837890625 1.5811124999999997 L 1.2784308837890626 1.5811124999999997 L 1.2784308837890626 2.5382624999999996 L 1.1906808837890626 2.5382624999999996 L 0.5710308837890625 1.7539124999999998 Z M 2.220693969726563 1.6634624999999996 L 1.8791439697265626 1.6634624999999996 L 1.8791439697265626 2.5382624999999996 L 1.7846439697265626 2.5382624999999996 L 1.7846439697265626 1.6634624999999996 L 1.4430939697265626 1.6634624999999996 L 1.4430939697265626 1.5797624999999997 L 2.220693969726563 1.5797624999999997 L 2.220693969726563 1.6634624999999996 Z M 3.0293241943359375 2.4545624999999998 L 3.0293241943359375 2.5382624999999996 L 2.3853741943359377 2.5382624999999996 L 2.3853741943359377 1.5797624999999997 L 3.0171741943359374 1.5797624999999997 L 3.0171741943359374 1.6634624999999996 L 2.4798741943359373 1.6634624999999996 L 2.4798741943359373 2.0090624999999998 L 2.9483241943359375 2.0090624999999998 L 2.9483241943359375 2.0887124999999997 L 2.4798741943359373 2.0887124999999997 L 2.4798741943359373 2.4545624999999998 L 3.0293241943359375 2.4545624999999998 Z M 3.2290536621093753 2.5382624999999996 L 3.2290536621093753 1.5797624999999997 L 3.634053662109375 1.5797624999999997 Q 3.696153662109375 1.5797624999999997 3.747453662109375 1.6054124999999995 Q 3.798753662109375 1.6310624999999996 3.837228662109375 1.6749374999999995 Q 3.875703662109375 1.7188124999999996 3.896628662109375 1.7721374999999995 Q 3.917553662109375 1.8254624999999995 3.917553662109375 1.8808124999999996 Q 3.917553662109375 1.9496624999999996 3.8912286621093752 2.0104124999999997 Q 3.8649036621093753 2.0711625 3.816978662109375 2.1130124999999995 Q 3.769053662109375 2.1548624999999997 3.704253662109375 2.1683624999999997 L 3.939153662109375 2.5382624999999996 L 3.8325036621093753 2.5382624999999996 L 3.607053662109375 2.1845624999999997 L 3.323553662109375 2.1845624999999997 L 3.323553662109375 2.5382624999999996 L 3.2290536621093753 2.5382624999999996 Z M 3.323553662109375 2.1008625 L 3.636753662109375 2.1008625 Q 3.693453662109375 2.1008625 3.7353036621093754 2.0698124999999994 Q 3.777153662109375 2.0387625 3.8001036621093753 1.9881374999999997 Q 3.823053662109375 1.9375124999999995 3.823053662109375 1.8808124999999996 Q 3.823053662109375 1.8227624999999996 3.796728662109375 1.7734874999999994 Q 3.7704036621093753 1.7242124999999997 3.726528662109375 1.6938374999999994 Q 3.682653662109375 1.6634624999999996 3.6286536621093752 1.6634624999999996 L 3.323553662109375 1.6634624999999996 L 3.323553662109375 2.1008625 Z M 4.425021826171876 1.5797624999999997 L 4.504671826171876 1.5797624999999997 L 4.902921826171876 2.5382624999999996 L 4.803021826171875 2.5382624999999996 L 4.678821826171876 2.2385624999999996 L 4.248171826171876 2.2385624999999996 L 4.125321826171875 2.5382624999999996 L 4.024071826171876 2.5382624999999996 L 4.425021826171876 1.5797624999999997 Z M 4.657221826171876 2.1643124999999994 L 4.464171826171875 1.6904624999999998 L 4.268421826171876 2.1643124999999994 L 4.657221826171876 2.1643124999999994 Z M 4.963622387695313 2.0522624999999994 Q 4.963622387695313 1.9645124999999997 4.9939973876953125 1.8801374999999996 Q 5.024372387695313 1.7957624999999995 5.082422387695313 1.7262374999999996 Q 5.140472387695313 1.6567124999999996 5.225522387695313 1.6155374999999996 Q 5.310572387695313 1.5743624999999994 5.418572387695313 1.5743624999999994 Q 5.546822387695313 1.5743624999999994 5.637947387695313 1.6330874999999996 Q 5.729072387695313 1.6918124999999997 5.772272387695313 1.7836124999999996 L 5.698022387695313 1.8295124999999997 Q 5.666972387695313 1.7660624999999996 5.619722387695313 1.7289374999999996 Q 5.5724723876953135 1.6918124999999997 5.5191473876953125 1.6756124999999997 Q 5.465822387695313 1.6594124999999997 5.413172387695313 1.6594124999999997 Q 5.326772387695313 1.6594124999999997 5.260622387695313 1.6938374999999994 Q 5.194472387695313 1.7282624999999996 5.149247387695313 1.7856374999999995 Q 5.104022387695313 1.8430124999999995 5.081072387695313 1.9138874999999995 Q 5.058122387695313 1.9847624999999995 5.058122387695313 2.0576624999999997 Q 5.058122387695313 2.1373124999999997 5.085122387695313 2.2102124999999995 Q 5.112122387695313 2.2831124999999997 5.160722387695313 2.3391374999999996 Q 5.2093223876953125 2.3951624999999996 5.274797387695313 2.4282375 Q 5.340272387695313 2.4613124999999996 5.417222387695313 2.4613124999999996 Q 5.471222387695313 2.4613124999999996 5.5279223876953125 2.4424124999999997 Q 5.584622387695313 2.4235124999999997 5.633897387695313 2.3843624999999995 Q 5.683172387695313 2.3452124999999997 5.712872387695313 2.2831124999999997 L 5.791172387695313 2.3236124999999994 Q 5.761472387695313 2.3951624999999996 5.699372387695313 2.4451124999999996 Q 5.6372723876953135 2.4950624999999995 5.560997387695313 2.5207124999999997 Q 5.484722387695313 2.5463625 5.411822387695313 2.5463625 Q 5.313272387695313 2.5463625 5.230922387695313 2.5038374999999995 Q 5.148572387695313 2.4613124999999996 5.088497387695313 2.3904374999999995 Q 5.028422387695313 2.3195624999999995 4.996022387695313 2.2311374999999996 Q 4.963622387695313 2.1427124999999996 4.963622387695313 2.0522624999999994 Z M 6.652418334960938 1.6634624999999996 L 6.310868334960937 1.6634624999999996 L 6.310868334960937 2.5382624999999996 L 6.216368334960938 2.5382624999999996 L 6.216368334960938 1.6634624999999996 L 5.8748183349609375 1.6634624999999996 L 5.8748183349609375 1.5797624999999997 L 6.652418334960938 1.5797624999999997 L 6.652418334960938 1.6634624999999996 Z M 6.817098559570312 2.5382624999999996 L 6.817098559570312 1.5797624999999997 L 6.911598559570312 1.5797624999999997 L 6.911598559570312 2.5382624999999996 L 6.817098559570312 2.5382624999999996 Z M 7.559579443359375 2.5450124999999995 Q 7.458329443359376 2.5450124999999995 7.375979443359376 2.5045124999999997 Q 7.293629443359376 2.4640124999999995 7.234229443359376 2.3944874999999994 Q 7.174829443359376 2.3249625 7.142429443359376 2.2378875 Q 7.110029443359376 2.1508125 7.110029443359376 2.0590124999999997 Q 7.110029443359376 1.9631624999999997 7.143779443359375 1.8760874999999997 Q 7.177529443359376 1.7890124999999997 7.2389544433593755 1.7208374999999996 Q 7.300379443359375 1.6526624999999995 7.382729443359375 1.6128374999999995 Q 7.465079443359375 1.5730124999999995 7.560929443359376 1.5730124999999995 Q 7.662179443359376 1.5730124999999995 7.744529443359376 1.6148624999999996 Q 7.826879443359376 1.6567124999999996 7.885604443359376 1.7269124999999996 Q 7.944329443359376 1.7971124999999994 7.976729443359376 1.8835124999999997 Q 8.009129443359376 1.9699124999999995 8.009129443359376 2.0603624999999997 Q 8.009129443359376 2.1562124999999996 7.975379443359376 2.2432874999999997 Q 7.941629443359376 2.3303624999999997 7.880879443359376 2.3985374999999998 Q 7.8201294433593755 2.4667125 7.737779443359376 2.5058624999999997 Q 7.655429443359376 2.5450124999999995 7.559579443359375 2.5450124999999995 Z M 7.204529443359376 2.0590124999999997 Q 7.204529443359376 2.1373124999999997 7.230179443359376 2.2095374999999997 Q 7.255829443359375 2.2817624999999997 7.303079443359375 2.3377874999999997 Q 7.350329443359375 2.3938124999999997 7.4158044433593755 2.4268874999999994 Q 7.481279443359376 2.4599624999999996 7.559579443359375 2.4599624999999996 Q 7.641929443359375 2.4599624999999996 7.707404443359375 2.4255374999999995 Q 7.7728794433593755 2.3911124999999998 7.819454443359375 2.3337375 Q 7.866029443359376 2.2763624999999994 7.890329443359375 2.2048124999999996 Q 7.914629443359376 2.1332625 7.914629443359376 2.0590124999999997 Q 7.914629443359376 1.9807124999999997 7.888979443359376 1.9091624999999997 Q 7.863329443359376 1.8376124999999996 7.815404443359376 1.7809124999999995 Q 7.767479443359376 1.7242124999999997 7.702679443359376 1.6918124999999997 Q 7.637879443359376 1.6594124999999997 7.559579443359375 1.6594124999999997 Q 7.478579443359376 1.6594124999999997 7.413104443359376 1.6931624999999997 Q 7.347629443359375 1.7269124999999996 7.301054443359376 1.7842874999999996 Q 7.254479443359376 1.8416624999999995 7.229504443359375 1.9132124999999998 Q 7.204529443359376 1.9847624999999995 7.204529443359376 2.0590124999999997 Z M 8.303397802734375 1.7539124999999998 L 8.303397802734375 2.5382624999999996 L 8.208897802734375 2.5382624999999996 L 8.208897802734375 1.5797624999999997 L 8.287197802734374 1.5797624999999997 L 8.916297802734375 2.3789624999999996 L 8.916297802734375 1.5811124999999997 L 9.010797802734375 1.5811124999999997 L 9.010797802734375 2.5382624999999996 L 8.923047802734375 2.5382624999999996 L 8.303397802734375 1.7539124999999998 Z M 9.574985083007812 2.0522624999999994 Q 9.574985083007812 1.9645124999999997 9.605360083007813 1.8801374999999996 Q 9.635735083007813 1.7957624999999995 9.693785083007812 1.7262374999999996 Q 9.751835083007812 1.6567124999999996 9.836885083007813 1.6155374999999996 Q 9.921935083007813 1.5743624999999994 10.029935083007812 1.5743624999999994 Q 10.158185083007814 1.5743624999999994 10.249310083007813 1.6330874999999996 Q 10.340435083007813 1.6918124999999997 10.383635083007812 1.7836124999999996 L 10.309385083007813 1.8295124999999997 Q 10.278335083007812 1.7660624999999996 10.231085083007812 1.7289374999999996 Q 10.183835083007812 1.6918124999999997 10.130510083007813 1.6756124999999997 Q 10.077185083007812 1.6594124999999997 10.024535083007812 1.6594124999999997 Q 9.938135083007813 1.6594124999999997 9.871985083007813 1.6938374999999994 Q 9.805835083007812 1.7282624999999996 9.760610083007812 1.7856374999999995 Q 9.715385083007813 1.8430124999999995 9.692435083007812 1.9138874999999995 Q 9.669485083007812 1.9847624999999995 9.669485083007812 2.0576624999999997 Q 9.669485083007812 2.1373124999999997 9.696485083007813 2.2102124999999995 Q 9.723485083007812 2.2831124999999997 9.772085083007813 2.3391374999999996 Q 9.820685083007813 2.3951624999999996 9.886160083007812 2.4282375 Q 9.951635083007814 2.4613124999999996 10.028585083007812 2.4613124999999996 Q 10.082585083007812 2.4613124999999996 10.139285083007813 2.4424124999999997 Q 10.195985083007812 2.4235124999999997 10.245260083007812 2.3843624999999995 Q 10.294535083007812 2.3452124999999997 10.324235083007812 2.2831124999999997 L 10.402535083007812 2.3236124999999994 Q 10.372835083007812 2.3951624999999996 10.310735083007813 2.4451124999999996 Q 10.248635083007812 2.4950624999999995 10.172360083007813 2.5207124999999997 Q 10.096085083007813 2.5463625 10.023185083007812 2.5463625 Q 9.924635083007812 2.5463625 9.842285083007813 2.5038374999999995 Q 9.759935083007813 2.4613124999999996 9.699860083007813 2.3904374999999995 Q 9.639785083007812 2.3195624999999995 9.607385083007813 2.2311374999999996 Q 9.574985083007812 2.1427124999999996 9.574985083007812 2.0522624999999994 Z M 10.586100146484377 2.5382624999999996 L 10.586100146484377 1.5797624999999997 L 10.680600146484377 1.5797624999999997 L 10.680600146484377 2.4545624999999998 L 11.234100146484376 2.4545624999999998 L 11.234100146484376 2.5382624999999996 L 10.586100146484377 2.5382624999999996 Z M 11.74297038574219 2.5450124999999995 Q 11.62957038574219 2.5450124999999995 11.551270385742189 2.5045124999999997 Q 11.472970385742189 2.4640124999999995 11.427070385742189 2.3958375 Q 11.38117038574219 2.3276624999999997 11.36024538574219 2.2412624999999995 Q 11.33932038574219 2.1548624999999997 11.33932038574219 2.0630624999999996 L 11.33932038574219 1.5797624999999997 L 11.432470385742189 1.5797624999999997 L 11.432470385742189 2.0630624999999996 Q 11.432470385742189 2.1373124999999997 11.447995385742189 2.2088624999999995 Q 11.46352038574219 2.2804124999999997 11.49862038574219 2.3371124999999995 Q 11.533720385742189 2.3938124999999997 11.59312038574219 2.4268874999999994 Q 11.65252038574219 2.4599624999999996 11.74162038574219 2.4599624999999996 Q 11.833420385742189 2.4599624999999996 11.893495385742188 2.4255374999999995 Q 11.95357038574219 2.3911124999999998 11.987995385742188 2.3344124999999996 Q 12.022420385742189 2.2777125 12.03727038574219 2.2068375 Q 12.052120385742189 2.1359624999999998 12.052120385742189 2.0630624999999996 L 12.052120385742189 1.5797624999999997 L 12.146620385742189 1.5797624999999997 L 12.146620385742189 2.0630624999999996 Q 12.146620385742189 2.1589124999999996 12.12502038574219 2.2466625 Q 12.103420385742188 2.3344124999999996 12.055495385742189 2.4005624999999995 Q 12.00757038574219 2.4667125 11.93062038574219 2.5058624999999997 Q 11.85367038574219 2.5450124999999995 11.74297038574219 2.5450124999999995 Z M 13.114494580078127 2.2912124999999994 Q 13.114494580078127 2.3627624999999997 13.078044580078128 2.4187874999999996 Q 13.041594580078128 2.4748124999999996 12.980169580078128 2.5065374999999994 Q 12.918744580078128 2.5382624999999996 12.845844580078127 2.5382624999999996 L 12.393594580078128 2.5382624999999996 L 12.393594580078128 1.5797624999999997 L 12.855294580078127 1.5797624999999997 Q 12.922794580078127 1.5797624999999997 12.972069580078127 1.6155374999999996 Q 13.021344580078127 1.6513124999999995 13.047669580078127 1.7073374999999995 Q 13.073994580078127 1.7633624999999995 13.073994580078127 1.8241124999999996 Q 13.073994580078127 1.8956624999999996 13.037544580078126 1.9564124999999997 Q 13.001094580078128 2.0171624999999995 12.936294580078128 2.0468624999999996 Q 13.018644580078128 2.0711625 13.066569580078127 2.1373124999999997 Q 13.114494580078127 2.2034624999999997 13.114494580078127 2.2912124999999994 Z M 13.019994580078126 2.2750124999999994 Q 13.019994580078126 2.2264124999999995 12.998394580078127 2.1852374999999995 Q 12.976794580078128 2.1440624999999995 12.939669580078128 2.1184125 Q 12.902544580078127 2.0927624999999996 12.855294580078127 2.0927624999999996 L 12.488094580078128 2.0927624999999996 L 12.488094580078128 2.4559124999999997 L 12.845844580078127 2.4559124999999997 Q 12.894444580078128 2.4559124999999997 12.933594580078127 2.4302624999999995 Q 12.972744580078128 2.4046125 12.996369580078127 2.3634375 Q 13.019994580078126 2.3222624999999995 13.019994580078126 2.2750124999999994 Z M 12.488094580078128 1.6621124999999997 L 12.488094580078128 2.0158124999999996 L 12.817494580078128 2.0158124999999996 Q 12.864744580078128 2.0158124999999996 12.901194580078128 1.9908374999999996 Q 12.937644580078127 1.9658624999999996 12.959244580078128 1.9253624999999996 Q 12.980844580078127 1.8848624999999997 12.980844580078127 1.8389624999999996 Q 12.980844580078127 1.7903624999999996 12.960594580078128 1.7505374999999996 Q 12.940344580078127 1.7107124999999996 12.905244580078127 1.6864124999999996 Q 12.870144580078128 1.6621124999999997 12.825594580078127 1.6621124999999997 L 12.488094580078128 1.6621124999999997 Z" fill="#009258" fill-rule="nonzero"></path></g><g clip-path="url(&quot;#SvgjsClipPath1003&quot;)"><g clip-path="url(&quot;#SvgjsClipPath1000&quot;)"><path d=" M 8.325368684004262 -4.4877615914851425 L 8.25269432711417 -4.461924263392598 L 8.171444176218893 -4.4217389722529195 C 8.104865180597685 -4.391547853368215 8.041086289211533 -4.355528508305022 7.980852651757515 -4.314101762880151 L 7.876019067347982 -4.243791246645335 L 7.772999593208772 -4.156164223284666 L 7.718961096368411 -4.109986870949057 L 7.6694853617231145 -4.0571577809555786 C 7.6365015386262485 -4.021095467703006 7.600384252335184 -3.9856928309123707 7.5676203213922975 -3.946387108388609 C 7.501338652411251 -3.8647008640096394 7.440481370708921 -3.778758776391382 7.385439671820613 -3.689113288233066 C 7.355552838699602 -3.643898755270986 7.328455649739595 -3.5969009207604037 7.304299467002325 -3.548382309686442 C 7.279836464872156 -3.4998960897340528 7.253119568163696 -3.4517397080126333 7.230305757188363 -3.4020990542518503 C 7.187206895008462 -3.302103097229856 7.142843652943178 -3.2015574098229145 7.109365072499861 -3.099747342530593 C 7.075886492056545 -3.0121203191699237 7.052248085503793 -2.9238336193473176 7.0269055147577 -2.8379107601799864 C 7.025036431448878 -2.842088711105589 7.023222321178551 -2.846321635069688 7.021408210908222 -2.850499585995289 C 6.976110427188528 -2.9392260701258524 6.932077023354214 -3.028337365525882 6.878478310821808 -3.1122811953074025 L 6.839997183875467 -3.1759399738843515 L 6.837633343220191 -3.1798980326559754 C 6.837633343220191 -3.1798980326559754 6.833840203564051 -3.186109986005884 6.832630796717167 -3.187869123237716 L 6.827683223252637 -3.194960645203544 L 6.817733103285086 -3.2091436891351943 L 6.797997782465462 -3.2375647500369924 C 6.770511263218074 -3.2760458769833347 6.7470377757808055 -3.3123830554283797 6.717022496762658 -3.351853697067628 L 6.626866713631231 -3.4693860533694534 C 6.596741488536095 -3.5078671803157957 6.564967072286116 -3.5428850058369656 6.534292116806029 -3.5793321303590018 C 6.413291355255128 -3.7194461015565574 6.281800825485313 -3.8501464017274794 6.140960026375918 -3.9703003801338395 C 6.074607568912732 -4.030330938170129 6.003032672792533 -4.082005594355216 5.936075511905901 -4.135219495618159 C 5.865545103517106 -4.184310418993991 5.7992476190924105 -4.235270425678647 5.7295967793195315 -4.277709611396613 C 5.6019264178542425 -4.360728630751375 5.469324849753316 -4.435905623880723 5.332526522271775 -4.502824204032713 C 5.269252554964293 -4.533883970782259 5.206968102349714 -4.560106110144266 5.1489715467377275 -4.586768033814231 L 4.9800943724817825 -4.653230437354415 C 4.872457163109013 -4.690447184415374 4.778838078552414 -4.721561924203418 4.699731876158433 -4.741792002369493 C 4.6220549727653175 -4.765155543729774 4.559165816727294 -4.776864800929161 4.5170564692403 -4.786924866973704 L 4.452298229893457 -4.801492722174817 L 4.514582682508033 -4.778294099930023 C 4.554932892763198 -4.762626783959014 4.615018423837986 -4.742781517062399 4.688407430228508 -4.709302936619082 C 4.762895897388928 -4.679012792408462 4.85057789378809 -4.635913930228558 4.949859201309652 -4.585668573044335 L 5.1044983585954515 -4.499086037415067 C 5.157162529473446 -4.465552483933253 5.213454920892094 -4.432293795643917 5.26996720446472 -4.394307426044029 C 5.391352935353574 -4.312973823717558 5.507671410379035 -4.224321374870028 5.618276376367609 -4.128842623152762 C 5.678361907442399 -4.0801914840848905 5.734324460630077 -4.023294389242798 5.793805288281422 -3.9687611350559853 C 5.849657895392113 -3.90999495690507 5.909523534312923 -3.8533177542169583 5.963397112037798 -3.7891092452550645 C 6.077425489373818 -3.6615647138924783 6.181518931797803 -3.525475035017191 6.274764402072201 -3.382033895201257 C 6.2977431321630135 -3.345421851563745 6.322865810755125 -3.3090846731187 6.344250322729594 -3.272087818211716 L 6.407469316998583 -3.1615920108372215 C 6.428578963780575 -3.1248150480842174 6.449523691447084 -3.0807816442499014 6.470578365190584 -3.0406513261487182 L 6.4863556272385825 -3.0098114515531513 L 6.49427174478183 -2.9944190007746165 L 6.499164345207866 -2.9847987190380305 C 6.501748078017121 -2.9802359568429617 6.49680050455259 -2.9887567778096544 6.497570127091516 -2.9872175327317994 L 6.499164345207866 -2.983534339152648 L 6.524836754184925 -2.9246582149247446 C 6.594516503978571 -2.770271487897417 6.647197275721572 -2.608763817494271 6.681949698202991 -2.4429844516335306 C 6.717360690903043 -2.282167615364364 6.739115824659636 -2.1186455110840408 6.746982802742305 -1.9541641933380012 C 6.755844247065163 -1.7978443002830353 6.756137876303562 -1.6411563979420212 6.7478623713582255 -1.484804390669625 C 6.7409357685078835 -1.3342332382324376 6.728731753962039 -1.1908085807995699 6.71432881787641 -1.0575539354882393 C 6.699925881790779 -0.9242992901769078 6.6849732153202 -0.8019842795260343 6.669910602772633 -0.6926429059599304 C 6.654847990225065 -0.5833015323938264 6.640719919331907 -0.4881981757978666 6.629505419478974 -0.4098066229043198 C 6.619573623857582 -0.34405886886456916 6.611492587198851 -0.2907166971784729 6.605262309502779 -0.2497801078460311 L 7.373345603351768 -0.2497801078460311 C 7.374005279813704 -0.2786409530557865 7.374664956275641 -0.31058028842125207 7.37543457881457 -0.34653265559683266 C 7.376534039584464 -0.4289922133389945 7.377798419469846 -0.5290431433994822 7.379282691509204 -0.6438268477765714 C 7.380766963548562 -0.7586105521536624 7.37983242189415 -0.8891165455402543 7.376204201353496 -1.0323762838576345 C 7.372575980812844 -1.1756360221750164 7.366309054424438 -1.3317044784616794 7.3524558487237535 -1.4978879738313813 C 7.341461241024799 -1.6281740750639973 7.2699962909815925 -2.434243738512869 7.3009461116541505 -2.7402786438132756 C 7.317438023202583 -2.833732809254391 7.328872415209494 -2.933234008929932 7.35267574087773 -3.030206448834715 C 7.37153149308144 -3.1291579181253084 7.400667203483668 -3.2261303580300913 7.428758426154498 -3.3242572317432613 C 7.443985957817551 -3.3727434516956505 7.462896683059752 -3.419635453531694 7.4797734058776495 -3.467516970060641 C 7.496283953371379 -3.5150889248041848 7.515764388382 -3.5615775783827845 7.538099799720602 -3.6067087035294088 C 7.578363472150056 -3.6962512938981287 7.624456502345584 -3.7830567734735294 7.676082126342484 -3.8665662564941887 C 7.701809508358043 -3.9067515476338732 7.731055164837262 -3.943528510386877 7.757607142430239 -3.9812949878327863 L 7.797847406608414 -4.036927702789499 L 7.842815352097139 -4.086403437434794 L 7.929617779880388 -4.181616740107743 L 8.020543185550743 -4.260777915540217 C 8.073438637175627 -4.308067196457167 8.130473068243774 -4.3505118520940105 8.190959604884544 -4.3876007153476575 L 8.265393099006468 -4.437076449992956 L 8.333064909393531 -4.471214706898212 L 8.46236149593324 -4.5365226766300015 Z" fill="#48484a" transform="matrix(1,0,0,1,0,0)" fill-rule="nonzero"></path></g><g clip-path="url(&quot;#SvgjsClipPath1000&quot;)"><path d=" M 7.574601897281135 -4.234390857062728 L 7.125747037971305 -4.209982827971049 L 6.891342001829587 -3.826380965354514 C 6.865594517634717 -3.7842542763831677 6.818167786154945 -3.760393055306194 6.768995249201486 -3.7648261665855065 C 6.719822712248032 -3.769259277864823 6.677428405691974 -3.8012182437706525 6.65963064457412 -3.847270719982529 L 6.49768007316851 -4.266660030659159 L 6.0604245249810775 -4.371108803799231 C 6.012378979989466 -4.382544956821241 5.975000114035801 -4.420278665106922 5.964018409106071 -4.468430115202633 C 5.953036704176341 -4.516581565298347 5.970358804446301 -4.566790699957375 6.008694895757493 -4.597927560628666 L 6.357498825006839 -4.881533466223207 L 6.321656403908246 -5.329673676032604 C 6.317689096022735 -5.378897227335869 6.342022974237846 -5.426101787738187 6.384419064524632 -5.45142507866093 C 6.42681515481142 -5.476748369583675 6.479914105232084 -5.475794631680564 6.521373452759761 -5.448965169566265 L 6.898928281141869 -5.204829905610972 L 7.314029694815906 -5.377445246484561 C 7.359634979447527 -5.3964156240154395 7.4120559213448125 -5.3878438611362185 7.4492434888499535 -5.355335369429498 C 7.48643105635509 -5.322826877722779 7.501932921650645 -5.272022129513436 7.4892287684987515 -5.22429036123812 L 7.373785387659725 -4.790003357129405 L 7.666241952451921 -4.4485658150383625 C 7.698477942504597 -4.411031227814872 7.706569794365617 -4.358433979900278 7.687106503591461 -4.312945689044781 C 7.6676432128173015 -4.267457398189279 7.624010804822653 -4.236991654684185 7.574601897281135 -4.234390857062726 Z" fill="#39bcb2" transform="matrix(1,0,0,1,0,0)" fill-rule="nonzero"></path></g><g clip-path="url(&quot;#SvgjsClipPath1000&quot;)"><path d=" M 5.626412386064837 -3.7973002279907786 L 5.376395006990604 -3.614185036764686 L 5.385520531380737 -3.3044119648466346 C 5.386511832889527 -3.270380668501832 5.368096524270423 -3.2387377495794114 5.338017825722999 -3.222788338829093 C 5.30793912717558 -3.2068389280787706 5.271413846947772 -3.2093492694396213 5.243800038141211 -3.229263821224281 L 4.99240833310461 -3.410674848257032 L 4.700611444774351 -3.306226075116964 C 4.668535048367411 -3.2946772560519735 4.632682853859969 -3.3023678535984287 4.608165205812547 -3.3260565716404367 C 4.58364755776513 -3.349745289682444 4.574728882295397 -3.3853118803186946 4.585168063935322 -3.41776637022286 L 4.679776663184829 -3.712861640862807 L 4.490339572531837 -3.9580963655879944 C 4.469515966254003 -3.9850364719179865 4.465795185900297 -4.021463379489683 4.480742060400991 -4.0520572162897 C 4.495688934901686 -4.082651053089718 4.526710443725083 -4.1021043251023475 4.560760034843646 -4.102235672521289 L 4.870698025877177 -4.103390106329682 L 5.045402342213569 -4.359399546599848 C 5.064601375493705 -4.387510097512486 5.098093130287914 -4.402285101731588 5.1317982775180955 -4.397513414221326 C 5.165503424748278 -4.3927417267110656 5.193577802974021 -4.369250714044348 5.204219450424971 -4.336915573855484 L 5.301081944252763 -4.04253495271597 L 5.598541055547987 -3.9554576597402478 C 5.631316595682227 -3.9459729037078244 5.655840478489819 -3.918666816322143 5.661762095011468 -3.885064270498104 C 5.667683711533117 -3.8514617246740688 5.653971312514586 -3.817417439552607 5.626412386064834 -3.7973002279907786 Z" fill="#39bcb2" transform="matrix(1,0,0,1,0,0)" fill-rule="nonzero"></path></g><g clip-path="url(&quot;#SvgjsClipPath1000&quot;)"><path d=" M 7.950562507546893 -6.359758471347682 L 7.679050670421205 -6.392192564059599 L 7.49846423896587 -6.1869232383201105 C 7.4786100156901 -6.164390069148974 7.447689717806364 -6.15507440292941 7.4186921665902785 -6.162889511261985 C 7.389694615374195 -6.170704619594555 7.367643243717696 -6.194296640839043 7.361801265267863 -6.223755174111609 L 7.308752283120407 -6.491968628927612 L 7.057745389353271 -6.60032048780081 C 7.030156279873648 -6.6122131492634715 7.011717385850918 -6.638744352785351 7.010188579427128 -6.668748637637061 C 7.008659773003333 -6.698752922488771 7.024306488445207 -6.727020887908691 7.050543921310457 -6.741656169770875 L 7.2892368544547645 -6.8749657881207025 L 7.314744344316339 -7.147192274746824 C 7.317604744801482 -7.177000263080587 7.3370956032792485 -7.202618726988502 7.365060445851267 -7.213326931290037 C 7.393025288423285 -7.224035135591573 7.424641968759143 -7.217986600087711 7.446679636703797 -7.197712497123523 L 7.647221281132732 -7.0119036270111845 L 7.91400543694787 -7.0717692659319935 C 7.943270886598395 -7.0783162133070405 7.973717541560683 -7.067703288242733 7.992572024164182 -7.044382963439393 C 8.01142650676768 -7.02106263863605 8.01542764926788 -6.989068516746145 8.002896840193921 -6.961823188942446 L 7.88816810885533 -6.713619920138542 L 8.027579734478074 -6.478390288419404 C 8.042904591634304 -6.452587179346329 8.042261040767698 -6.420323487634674 8.02591941419973 -6.395152017160963 C 8.009577787631764 -6.3699805466872474 7.980368963759845 -6.35626177966533 7.950562507546893 -6.359758471347682 Z" fill="#d6df28" transform="matrix(1,0,0,1,0,0)" fill-rule="nonzero"></path></g><g clip-path="url(&quot;#SvgjsClipPath1000&quot;)"><path d=" M 9.062667076296176 -3.367026255692183 L 8.786977288244884 -3.400010078789049 L 8.603587231826317 -3.1916072898553605 C 8.5834495573791 -3.1686895896348606 8.55204122260329 -3.159202031859534 8.522583429624664 -3.1671383627729526 C 8.493125636646038 -3.1750746936863727 8.47073442681294 -3.199056582021936 8.464835282665508 -3.228988956031807 L 8.410961704940627 -3.5013253887349185 L 8.15605172544036 -3.611271465724467 C 8.128052044175337 -3.623351664816337 8.109341138957543 -3.6502832489692576 8.107789219274094 -3.6807382141857623 C 8.106237299590648 -3.711193179402267 8.122113640516808 -3.739887255408498 8.148740311320559 -3.754751096195828 L 8.391116438044012 -3.8901496900084576 L 8.417008739175055 -4.166609100598675 C 8.419872804104166 -4.196966961902435 8.439714688191387 -4.223070065440108 8.468199163493633 -4.233952954652636 C 8.496683638795876 -4.244835843865167 8.52887603841792 -4.238613160761864 8.551252899179293 -4.217898945514297 L 8.754653141609953 -4.029231477400234 L 9.025505302273707 -4.090031657975453 C 9.055268818899084 -4.096714017097243 9.086245320563467 -4.0859220393722815 9.105413478211254 -4.0621922568673465 C 9.124581635859043 -4.038462474362415 9.12861806435673 -4.005909169099162 9.115826004520617 -3.9782164976770833 L 8.999283162911697 -3.7262200892170396 L 9.14083873703574 -3.4873622369572455 C 9.156281821209145 -3.461168640398809 9.155572892802619 -3.428491876022012 9.139008324243866 -3.4029926913700383 C 9.122443755685119 -3.3774935067180665 9.09287639279303 -3.363563518877803 9.062667076296176 -3.367026255692183 Z" fill="#d6df28" transform="matrix(1,0,0,1,0,0)" fill-rule="nonzero"></path></g><g clip-path="url(&quot;#SvgjsClipPath1000&quot;)"><path d=" M 8.803744064985786 -6.124144028359081 L 8.623047687453466 -6.0445980416571405 L 8.586160778623473 -5.850653161847579 C 8.582174935515273 -5.829311357380524 8.56640186739007 -5.812092186814741 8.545490651514491 -5.8062543264362985 C 8.524579435638913 -5.8004164660578565 8.502168103191265 -5.806975558295093 8.487704066679335 -5.823166642600192 L 8.356208558599832 -5.970439412727693 L 8.160339622442955 -5.945591599328054 C 8.138828342509314 -5.942865540784158 8.117635336455812 -5.95259112812205 8.105674994849632 -5.970677498355784 C 8.093714653243454 -5.988763868589516 8.093062270631307 -6.012072771428952 8.10399225798581 -6.030799808994954 L 8.203383511584363 -6.201216228328754 L 8.119219789648863 -6.379823630398275 C 8.10996725231744 -6.3994467932853665 8.112667260418913 -6.422622398755449 8.126183050590363 -6.439593002304056 C 8.139698840761817 -6.456563605852664 8.161682557617876 -6.464381209439793 8.182878568225812 -6.459754428369676 L 8.375778960303977 -6.417919946075155 L 8.5196434020448 -6.5531536207722985 C 8.53545346441647 -6.567980451534208 8.558303958874388 -6.5725588549311595 8.578605799979508 -6.564967528934931 C 8.598907641084628 -6.557376202938703 8.61314818382423 -6.538928606425392 8.6153514620642 -6.5173661727122 L 8.635196728960814 -6.320947506170372 L 8.808196881103868 -6.225899122612907 C 8.827036362238285 -6.21541298970315 8.838338881923962 -6.195186956884799 8.837396263435071 -6.1736463788238565 C 8.836453644946182 -6.152105800762916 8.823427525724714 -6.132944392337587 8.803744064985786 -6.124144028359081 Z" fill="#009258" transform="matrix(1,0,0,1,0,0)" fill-rule="nonzero"></path></g><g clip-path="url(&quot;#SvgjsClipPath1000&quot;)"><path d=" M 6.543252722080679 -5.621635483478348 L 6.239251819204579 -5.587332307457611 L 6.095222458348271 -5.317469661486765 C 6.0793964167411705 -5.287819924264998 6.048108574835549 -5.269727512699193 6.01451663802594 -5.270800961183558 C 5.980924701216328 -5.271874409667921 5.950855819697615 -5.291927508470627 5.936955080521814 -5.322527181028287 L 5.810517091983836 -5.60102059404281 L 5.509374787109463 -5.65467427961371 C 5.476292133487286 -5.660568602622474 5.449429827174457 -5.684743266483496 5.440093429988043 -5.717023859755524 C 5.430757032801628 -5.74930445302755 5.440567680078328 -5.784085900283953 5.4653963563136445 -5.806729704090256 L 5.691115652373183 -6.013153463638131 L 5.649061277924682 -6.3161098787828305 C 5.644435994298489 -6.349397244424502 5.65911060763089 -6.382423782329226 5.686914499133402 -6.401301959606216 C 5.714718390635915 -6.420180136883206 5.750829028911604 -6.421635570066139 5.780062028657726 -6.405056255067375 L 6.046131534972433 -6.254155264399218 L 6.321326565677275 -6.387739747941521 C 6.35154488120321 -6.402430449272047 6.387484233788861 -6.39868278387703 6.4140215810521655 -6.378073744621535 C 6.44055892831547 -6.357464705366039 6.453087460991767 -6.323571963824995 6.4463352552143895 -6.290657361959748 L 6.385040317292717 -5.990999329124737 L 6.597181272844047 -5.770557444760694 C 6.620479311746589 -5.746312831180519 6.627982993264281 -5.710939055334178 6.616534266938836 -5.679323765206119 C 6.605085540613391 -5.647708475078057 6.576672295042877 -5.625341161200534 6.543252722080679 -5.62163548347835 Z" fill="#44a4aa" transform="matrix(1,0,0,1,0,0)" fill-rule="nonzero"></path></g><g clip-path="url(&quot;#SvgjsClipPath1000&quot;)"><path d=" M 9.220439696776175 -4.245880222108136 L 9.04271186332257 -4.302832289988721 L 8.895109254964105 -4.1887632351120665 C 8.878886847811058 -4.17623467474317 8.856960307598717 -4.173997135278073 8.838541632985887 -4.182990674306883 C 8.820122958373055 -4.1919842133356955 8.808403450603192 -4.21065057040325 8.808306827180854 -4.231147447791535 L 8.807592177680425 -4.4177259404428 L 8.653667669895057 -4.522889363083303 C 8.636737661998723 -4.534443205767025 8.627830568601969 -4.554603166454855 8.630688413484577 -4.57489969745789 C 8.633546258367188 -4.595196228460923 8.647673896979168 -4.612112792975111 8.667136064326275 -4.61854245006421 L 8.844369140433425 -4.676868843907165 L 8.89681341915744 -4.85597100332314 C 8.902607442549225 -4.875620417024846 8.919054521559165 -4.890276455054977 8.93923913481224 -4.893776677006377 C 8.959423748065314 -4.897276898957776 8.979845167226895 -4.8890142421134595 8.991916775753403 -4.872462914871573 L 9.101862852742949 -4.721946735472882 L 9.288386372355713 -4.727444039322357 C 9.308873418468822 -4.728068151614579 9.32793643966707 -4.717001091317597 9.337552787783114 -4.698900416647714 C 9.347169135899154 -4.680799741977832 9.34566917281234 -4.658808181970411 9.333684156075412 -4.642180856616965 L 9.224562674663286 -4.490785108602358 L 9.287451830701304 -4.314871385419082 C 9.294128584399164 -4.295651092312323 9.289395091043094 -4.274308588006398 9.275218476657923 -4.259713304123386 C 9.261041862272748 -4.245118020240374 9.239846122355113 -4.239765538690263 9.220439696776175 -4.245880222108136 Z" fill="#44a4aa" transform="matrix(1,0,0,1,0,0)" fill-rule="nonzero"></path></g><g clip-path="url(&quot;#SvgjsClipPath1000&quot;)"><path d=" M 6.93097756258432 -6.849238406105149 L 6.744509016010046 -6.843741102255672 L 6.643303652141167 -6.687012969507071 C 6.63220937685475 -6.669775137391456 6.612285784297113 -6.660336799216149 6.591919704370197 -6.662671020411213 C 6.571553624443286 -6.6650052416062735 6.554282148951463 -6.678706624830229 6.547375699967785 -6.698007577206026 L 6.484486543929764 -6.873646435196827 L 6.304120004628411 -6.921472978687281 C 6.284319572317553 -6.92673955146804 6.269220474070787 -6.94278188187313 6.265161913337042 -6.962864759986649 C 6.2611033526033 -6.982947638100169 6.268787943054347 -7.003594337649762 6.284989387232231 -7.016136550975285 L 6.432646968629189 -7.130205605851939 L 6.422367010430666 -7.316509233310727 C 6.421262136966416 -7.3369637156022565 6.431852955417233 -7.356275088353371 6.449694724444086 -7.366338778987473 C 6.467536493470939 -7.376402469621573 6.48954190642301 -7.3754770757598 6.506475759327669 -7.363950965531718 L 6.660400267113037 -7.258787542891215 L 6.834389933948998 -7.326129515047313 C 6.853511118174975 -7.3335211036954915 6.875170352263851 -7.329419980642275 6.8902656323002915 -7.315549588089467 C 6.905360912336739 -7.301679195536661 6.911275956228119 -7.280443520662116 6.905525045761235 -7.260766572277026 L 6.853135740075716 -7.0817193858995475 L 6.970942961570016 -6.937030348581302 C 6.983825061409304 -6.921158673444746 6.986614735585099 -6.899363466706361 6.978145414562078 -6.880758919699812 C 6.969676093539061 -6.8621543726932615 6.951406909590916 -6.849945759477797 6.93097756258432 -6.849238406105149 Z" fill="#8dc527" transform="matrix(1,0,0,1,0,0)" fill-rule="nonzero"></path></g><g clip-path="url(&quot;#SvgjsClipPath1000&quot;)"><path d=" M 5.116867292256776 -6.114963530930453 L 4.9414483264199545 -6.178567336468907 L 4.789612794097387 -6.070050558480222 C 4.772930059702488 -6.0581689810742745 4.750952963269672 -6.056774814339599 4.732902535660936 -6.066453015189244 C 4.714852108052199 -6.076131216038889 4.703850819326071 -6.095207591870416 4.704514530507478 -6.1156781804308835 L 4.710726483857387 -6.302146727005158 L 4.5606500887666535 -6.413027345649116 C 4.544185599009786 -6.42521978570622 4.536061642125235 -6.445695712078093 4.5396885675903285 -6.465859551721641 C 4.543315493055419 -6.48602339136519 4.558065503542421 -6.502384914120778 4.577746703738529 -6.508075729206584 L 4.757013782269986 -6.559750385391671 L 4.8160548256133735 -6.736763569344842 C 4.822549275531411 -6.756208083596475 4.839516727082686 -6.770281553663557 4.8598266639519325 -6.773069649534753 C 4.880136600821179 -6.775857745405948 4.9002688447153036 -6.766877226063418 4.911762885632775 -6.749902125545094 L 5.0162116587728445 -6.595317941297788 L 5.202790151424107 -6.593888642296924 C 5.22328822516298 -6.593715556814535 5.241911969512175 -6.58192459074439 5.25083587390986 -6.5634701897546694 C 5.259759778307545 -6.545015788764948 5.257437379384604 -6.5230959986725585 5.244844525872608 -6.5069212953981905 L 5.13017076757251 -6.359758471347682 L 5.186408185952665 -6.181865718778592 C 5.192551822251577 -6.162353409926387 5.187114265184074 -6.141044965110229 5.1723722441110205 -6.12686232507394 C 5.157630223037967 -6.112679685037651 5.136127473408366 -6.10807006404323 5.116867292256776 -6.114963530930453 Z" fill="#009258" transform="matrix(1,0,0,1,0,0)" fill-rule="nonzero"></path></g><g clip-path="url(&quot;#SvgjsClipPath1000&quot;)"><path d=" M 4.825785053426951 -5.3421525557709195 L 4.591325044246739 -5.360018793281721 L 4.4436674628497785 -5.177013548132617 C 4.427463075177945 -5.156903873990736 4.401245760199134 -5.147739779350191 4.376042208889155 -5.1533755734625615 C 4.350838657579175 -5.159011367574933 4.331021539808622 -5.178469272871932 4.324925699701067 -5.203565525725594 L 4.269402930821343 -5.432143419786863 L 4.049510776842247 -5.515977303491394 C 4.02548728160702 -5.525233592129288 4.008773869846189 -5.547291270279618 4.006362147496793 -5.572923102012337 C 4.003950425147397 -5.598554933745055 4.0162560743047955 -5.623343041718144 4.038131357873829 -5.6369179881798965 L 4.238288191033302 -5.760277486562169 L 4.250162367348174 -5.995177280050338 C 4.2514587322240365 -6.020975865358393 4.267294327739348 -6.043799321876102 4.291006603652924 -6.054045078889942 C 4.314718879566504 -6.0642908359037815 4.342192175326877 -6.060180571580976 4.361867581569554 -6.043443607848749 L 4.541079687062518 -5.891168291218224 L 4.768118336045934 -5.952463229139899 C 4.79305211333553 -5.95920064242261 4.8196485130586515 -5.95119460199538 4.83671989432041 -5.9318128082320305 C 4.853791275582168 -5.91243101446868 4.85837536608391 -5.8850366487007655 4.8485438913637875 -5.861153012200078 L 4.759102757732792 -5.643679671914753 L 4.887574748695077 -5.446656301949483 C 4.901495017862648 -5.425055381051648 4.902026217328349 -5.397446235542024 4.888947145356801 -5.37532584780367 C 4.875868073385253 -5.353205460065313 4.851420571856402 -5.340365414985927 4.825785053426951 -5.3421525557709195 Z" fill="#8dc527" transform="matrix(1,0,0,1,0,0)" fill-rule="nonzero"></path></g><g clip-path="url(&quot;#SvgjsClipPath1000&quot;)"><path d=" M 5.593098724737004 -4.710182505234997 L 5.3838713402258955 -4.817599822453785 L 5.1768428772545745 -4.706114500386384 C 5.154110939634733 -4.6939665309880905 5.126458380028422 -4.695750244065057 5.105475528049217 -4.710718011810222 C 5.084492676070013 -4.725685779555386 5.073804713950955 -4.75125163864252 5.0778914079639845 -4.776699881813673 L 5.1153830202174175 -5.008851023377105 L 4.945351412153081 -5.171296352129163 C 4.926666536897811 -5.189133857907278 4.919734147145834 -5.216035312614377 4.927471126282908 -5.240681617195827 C 4.935208105419984 -5.2653279217772795 4.956271458980943 -5.283440940018243 4.981798536675116 -5.287399409430126 L 5.214169570392525 -5.323516695721194 L 5.316199529838826 -5.535437759118546 C 5.327396917599743 -5.558704237067694 5.350831849465867 -5.573596470238721 5.3766513112203285 -5.5738531481233125 C 5.402470772974789 -5.574109826007902 5.426197138968131 -5.559686435382247 5.437854864027761 -5.53664716596543 L 5.54400780136117 -5.326815078030878 L 5.777038511540516 -5.295260553934876 C 5.802630554597198 -5.291750716857168 5.824008181996106 -5.274010797716086 5.8321768515580805 -5.249504789030164 C 5.840345521120055 -5.224998780344238 5.833887370685577 -5.197980268592031 5.815519638486855 -5.179817173095851 L 5.648786412732206 -5.014018488995613 L 5.690785814142213 -4.78263696997111 C 5.695381837486591 -4.757243977274772 5.68517241279298 -4.731442433497427 5.664445669019968 -4.71606941813849 C 5.643718925246954 -4.700696402779553 5.616064891778436 -4.698414638814807 5.593098724737004 -4.710182505234997 Z" fill="#d6df28" transform="matrix(1,0,0,1,0,0)" fill-rule="nonzero"></path></g><g clip-path="url(&quot;#SvgjsClipPath1000&quot;)"><path d=" M 5.884895613067265 -2.558207940318572 L 5.761426168608004 -2.7583647734780445 L 5.526581348158329 -2.770129003715926 C 5.500772876419204 -2.771405726945833 5.477931094454793 -2.7872338613709458 5.467671974611235 -2.810950051953549 C 5.457412854767677 -2.834666242536157 5.461518321074767 -2.862151183669262 5.478260047321421 -2.881834217937306 L 5.630425417874955 -3.061101296468765 L 5.569075506914788 -3.2881399454521834 C 5.562356614171062 -3.3130741477522037 5.570365024602406 -3.339661190400033 5.58973771945152 -3.356736220658373 C 5.609110414300633 -3.3738112509167117 5.636492681054957 -3.3784174360833426 5.660385723854611 -3.3686204738085346 L 5.877859064139933 -3.2792343132160298 L 6.074827461066711 -3.407761277216813 C 6.096445097972114 -3.4217176641727858 6.124098053699493 -3.4222418033487436 6.146229037247184 -3.4091146357391375 C 6.168360020794873 -3.3959874681295337 6.181158795322315 -3.371469065797166 6.179276234206781 -3.3458066628331977 L 6.16151994277297 -3.111291680614495 L 6.344580160960565 -2.9637440452945194 C 6.364722969815257 -2.947545926379985 6.373910159373655 -2.9213085282043183 6.36827207648469 -2.8960830683222207 C 6.362633993595724 -2.8708576084401303 6.343150547027269 -2.8510283163492645 6.3180281833675895 -2.8449473091073134 L 6.089560235383308 -2.789424540227593 L 6.005781324717272 -2.569532386248497 C 5.9965001854823115 -2.545544421140556 5.974450834902152 -2.5288686497348065 5.948842109392022 -2.5264696513468623 C 5.923233383881894 -2.52407065295892 5.898470508106676 -2.5363611043877645 5.8848956130672665 -2.558207940318572 Z" fill="#d6df28" transform="matrix(1,0,0,1,0,0)" fill-rule="nonzero"></path></g><g clip-path="url(&quot;#SvgjsClipPath1000&quot;)"><path d=" M 4.213605296749145 -4.276665123665208 L 4.081999842592655 -4.404422465127064 L 3.90207308759926 -4.368470097951482 C 3.8822799493901923 -4.36445474609852 3.8619266669929466 -4.37205104110827 3.8496042877419363 -4.388052614164085 C 3.8372819084909264 -4.4040541872198995 3.835137625141514 -4.4256727406205 3.844076531987273 -4.4437831606893194 L 3.924941871613088 -4.608702276173643 L 3.8351159267126285 -4.7686738181934345 C 3.8252348909943628 -4.786252357155679 3.8261987104195083 -4.807917883769967 3.837601633315614 -4.8245495778610135 C 3.8490045562117214 -4.841181271952059 3.8688659815696895 -4.849890334709249 3.888824585322024 -4.84701039804849 L 4.070235612354778 -4.821008150840459 L 4.1946395984684495 -4.955857014268142 C 4.208310920303746 -4.970647848181031 4.229191085592923 -4.976399427036426 4.248507857071923 -4.970695380385925 C 4.267824628550924 -4.964991333735422 4.2822311653182386 -4.948819949743782 4.285674950215795 -4.928975198444196 L 4.317064555196313 -4.748223847873378 L 4.483742807912466 -4.671591432211663 C 4.502075473866283 -4.663204302936332 4.514044868225088 -4.6451236259030715 4.514605303881116 -4.6249712937717575 C 4.515165739537143 -4.604818961640444 4.50421971383007 -4.586101007571748 4.486381513760217 -4.576707967769685 L 4.3241560771621375 -4.491005000756331 L 4.302771565187668 -4.308824351184651 C 4.300453886511123 -4.288871097830917 4.2870428937245535 -4.271948476893172 4.2681469176056215 -4.265133343706011 C 4.24925094148669 -4.258318210518851 4.228125606358272 -4.262784757578505 4.213605296749143 -4.276665123665208 Z" fill="#39bcb2" transform="matrix(1,0,0,1,0,0)" fill-rule="nonzero"></path></g><g clip-path="url(&quot;#SvgjsClipPath1000&quot;)"><path d=" M 4.916380620866336 -2.476792870307812 L 4.803081188528608 -2.6210421233181 L 4.619965997302513 -2.609497785234198 C 4.599813647020061 -2.608198274326484 4.580677386763073 -2.618476973510189 4.570633109602545 -2.6359960615808777 C 4.5605888324420185 -2.653515149651562 4.561386385157495 -2.675222568272819 4.572689184197009 -2.691957342976359 L 4.6748840627587915 -2.844287632645379 L 4.607322198448716 -3.0147040519791792 C 4.599906584572947 -3.0334338304125534 4.603763543482275 -3.0547492080304037 4.617272258643245 -3.069692786718835 C 4.630780973804217 -3.0846363654072677 4.65160017648477 -3.0906181924497247 4.670980977025665 -3.085124514290986 L 4.847444430593888 -3.0349891031837544 L 4.988780112563954 -3.151916756062132 C 5.00430477587205 -3.164788428921659 5.025794134369096 -3.167721624528447 5.044200475321058 -3.1594813729671998 C 5.062606816273017 -3.1512411214059552 5.07473264406678 -3.133258895031055 5.075472594270211 -3.11310579088482 L 5.082344224082059 -2.929825680543243 L 5.23725824656033 -2.8315338877145875 C 5.254266179035716 -2.8207389174877298 5.263673575938474 -2.801226635299427 5.2615271068186065 -2.7811968120450015 C 5.25938063769874 -2.761166988790581 5.246052323771925 -2.744091148531597 5.22714320747729 -2.737145180619062 L 5.0549126778731654 -2.673926186350071 L 5.009504948076484 -2.4963632720119504 C 5.004561964392002 -2.4767378309764005 4.988862384666659 -2.461647887241446 4.969056659145496 -2.457485645042194 C 4.949250933624331 -2.4533234028429387 4.928805281053222 -2.4608173001212617 4.916380620866338 -2.476792870307812 Z" fill="#44a4aa" transform="matrix(1,0,0,1,0,0)" fill-rule="nonzero"></path></g><g clip-path="url(&quot;#SvgjsClipPath1000&quot;)"><path d=" M 5.956855320456924 -6.896020461864202 L 5.823380782991615 -6.809492899273427 L 5.818982939912032 -6.650455898908045 C 5.818480682988315 -6.633008838569067 5.808126888874039 -6.6173562834432635 5.792267179262193 -6.6100678139525275 C 5.776407469650354 -6.6027793444617915 5.757786451457206 -6.605116268931607 5.74421960755914 -6.616097749848812 L 5.620640217022888 -6.716313599024786 L 5.46809003519989 -6.67134565353606 C 5.451335541696745 -6.666399059627193 5.433225593495638 -6.671391554800827 5.421372534203824 -6.6842245914356635 C 5.4095194749120115 -6.697057628070498 5.405978268832488 -6.715506343240067 5.412237428089201 -6.731815995880312 L 5.469354415085268 -6.8802431998162 L 5.379473497146313 -7.0114638427032245 C 5.369592010983622 -7.02587608830702 5.368750678338906 -7.044648825307216 5.3773033194590845 -7.059887228176185 C 5.3858559605792635 -7.075125631045151 5.402318916603689 -7.0841862366560076 5.419768734362981 -7.083258630977403 L 5.578585842574386 -7.0747927830492054 L 5.6756132555176615 -7.200845960317723 C 5.686252275805634 -7.21471893532363 5.703855064213775 -7.221333790613599 5.720997458183806 -7.2179006408675574 C 5.738139852153835 -7.214467491121517 5.75183765609368 -7.201583988590193 5.756313676027989 -7.184683887000259 L 5.797378535783588 -7.030759379214892 L 5.9472350387203425 -6.97743553187496 C 5.963522613657283 -6.971504505381544 5.975080107435781 -6.95690432024185 5.977114182265698 -6.939690235538378 C 5.979148257095616 -6.922476150834903 5.971311965906113 -6.905584330064286 5.956855320456924 -6.896020461864204 Z" fill="#39bcb2" transform="matrix(1,0,0,1,0,0)" fill-rule="nonzero"></path></g><g clip-path="url(&quot;#SvgjsClipPath1000&quot;)"><path d=" M 9.275412735270951 -5.357819871741931 L 9.15150350650373 -5.277504262501065 L 9.147435501655114 -5.129846681104101 C 9.14695337370081 -5.1136387261957585 9.137323941446873 -5.099105486098244 9.122586288083893 -5.0923429552829536 C 9.107848634720908 -5.0855804244676595 9.0905512604723 -5.087758009682673 9.077949580997718 -5.0979623187771335 L 8.96327582269762 -5.19097669991029 L 8.82161030249659 -5.149252163692757 C 8.806060283457528 -5.144641991874616 8.789241776459395 -5.149273142378272 8.77824364425246 -5.161193623252242 C 8.767245512045523 -5.173114104126213 8.763980855368988 -5.190250374123449 8.76982570023451 -5.2053796359959215 L 8.822819709343474 -5.343252016540813 L 8.739370636908408 -5.465072269845233 C 8.730206713650738 -5.478445998010552 8.729427322057102 -5.495861780187644 8.737360002244259 -5.510000616050634 C 8.745292682431412 -5.524139451913625 8.76056250179574 -5.53255072629252 8.776752303084855 -5.531699592500899 L 8.92424496536633 -5.523838447996146 L 9.014290802420769 -5.6408760469515205 C 9.024183427444761 -5.653729810471985 9.040516519312664 -5.659851289401079 9.05642048450003 -5.656665829022391 C 9.072324449687404 -5.653480368643701 9.085039998927968 -5.641540636579898 9.089219053889149 -5.625868407442448 L 9.127370342604522 -5.483213372548507 L 9.266507103034796 -5.43373763790321 C 9.281801892349904 -5.428311568401376 9.292685659630958 -5.41466736457821 9.294576431206831 -5.398549120465395 C 9.296467202782702 -5.382430876352582 9.289036558004431 -5.366638276618041 9.275412735270951 -5.357819871741931 Z" fill="#44a4aa" transform="matrix(1,0,0,1,0,0)" fill-rule="nonzero"></path></g><g clip-path="url(&quot;#SvgjsClipPath1000&quot;)"><path d=" M 7.486645035689496 -5.867255019473001 L 7.329257226478957 -5.7652250600267 L 7.324089760860449 -5.577712025721025 C 7.323464881445002 -5.557202538206394 7.311289581570155 -5.538812255317516 7.292652686553718 -5.5302276355505695 C 7.274015791537282 -5.5216430157836225 7.252126179535161 -5.524342148639174 7.23613289926881 -5.537196896350379 L 7.090454347257658 -5.655333956075648 L 6.910527592264263 -5.60228497392819 C 6.890720650554506 -5.596375083800606 6.8692770094571305 -5.602256857939452 6.8552570771908865 -5.617445117894549 C 6.841237144924641 -5.63263337784965 6.837086913282837 -5.654478299178252 6.844559946070533 -5.673749923971398 L 6.911901918226634 -5.848784078538757 L 6.80591390000871 -6.003533181901545 C 6.794269181048032 -6.020518796377077 6.7932794001822145 -6.042643047263048 6.8033608521339675 -6.060600633552108 C 6.8134423040857195 -6.0785582198411685 6.832845891649134 -6.089233562135291 6.853410605268193 -6.088136688145003 L 7.040703747419887 -6.078186568177447 L 7.155102640527513 -6.226613772113337 C 7.167655135621333 -6.2429484777972615 7.1883961247994845 -6.250735365035928 7.208597195730105 -6.2466974848845735 C 7.2287982666607284 -6.242659604733219 7.2449522077737925 -6.2274979942820945 7.250260970161967 -6.207593100794145 L 7.29869221707586 -6.02618207376139 L 7.475375562798066 -5.963292917723368 C 7.494608820435568 -5.956310314871164 7.508256073612545 -5.9390730373530465 7.51064075193886 -5.91875092498198 C 7.513025430265172 -5.898428812610916 7.503739343254252 -5.878500444801716 7.486645035689496 -5.867255019473001 Z" fill="#8dc527" transform="matrix(1,0,0,1,0,0)" fill-rule="nonzero"></path></g><g clip-path="url(&quot;#SvgjsClipPath1000&quot;)"><path d=" M 8.627170665340572 -4.918915132399652 L 8.354174556175526 -4.904072412006064 L 8.211629467358573 -4.670766836634242 C 8.195965694555815 -4.645152618447058 8.167119795211473 -4.630650680956895 8.13721802508633 -4.633357356988513 C 8.10731625496118 -4.636064033020129 8.081543284439755 -4.655510011793497 8.07073356969647 -4.683520581565032 L 7.972221884713835 -4.938540507142288 L 7.706317297514616 -5.002034366603751 C 7.6770826297546835 -5.008980562042896 7.6543330070132996 -5.031932070766937 7.647645367501184 -5.061226966361019 C 7.640957727989068 -5.090521861955104 7.651493624287211 -5.121072017057491 7.67481774645711 -5.140016693225634 L 7.8869587020084415 -5.31246711498374 L 7.864969486610532 -5.585023439840831 C 7.862556586855346 -5.614966530041528 7.877359460535255 -5.643681205663551 7.903149517373451 -5.659085221512612 C 7.928939574211656 -5.674489237361672 7.9612400483215575 -5.673908688021346 7.98645990168398 -5.657587850653931 L 8.216027310438157 -5.509160646718042 L 8.468463503206163 -5.614104177204566 C 8.496198637378246 -5.625626516799033 8.52806948242799 -5.620412630820692 8.550687047597691 -5.600652880744636 C 8.573304612767387 -5.580893130668581 8.582750402022363 -5.550010895702007 8.575056224847529 -5.52097984999442 L 8.504800681651208 -5.256779426988533 L 8.6826384611818 -5.049091287555278 C 8.702168367314567 -5.026296975537807 8.707081044659393 -4.994398859111297 8.695314645934825 -4.966784555662557 C 8.683548247210258 -4.9391702522138194 8.657138929566656 -4.920618374361345 8.627170665340572 -4.918915132399652 Z" fill="#8dc527" transform="matrix(1,0,0,1,0,0)" fill-rule="nonzero"></path></g><g clip-path="url(&quot;#SvgjsClipPath1000&quot;)"><path d=" M 4.317559312542763 -3.4028686767907748 L 4.194364733275977 -3.4683965386765463 L 4.070565450585744 -3.4040780836376596 C 4.056968756114766 -3.3969934527249466 4.040527616717781 -3.3982507215475386 4.028166256033919 -3.4073203884515606 C 4.015804895350057 -3.4163900553555826 4.009671437681345 -3.431696017807824 4.012349002819778 -3.446792134548098 L 4.036592112795975 -3.5842247307850337 L 3.9371458861589272 -3.6820767393057294 C 3.9262249187789693 -3.692834854491601 3.9223543188698393 -3.7088579281806795 3.927160033978798 -3.723415045792285 C 3.9319657490877606 -3.7379721634038927 3.9446152491040873 -3.7485414861560384 3.959794778018776 -3.750683091347204 L 4.097942023756143 -3.7700885739358636 L 4.1603364224477115 -3.8948773713189997 C 4.167175817259654 -3.9085875666685914 4.181207485777809 -3.917224236801243 4.196528774105722 -3.9171542232978407 C 4.211850062433631 -3.91708420979444 4.225802212821189 -3.908319662347671 4.232516021991351 -3.894547533088032 L 4.293701013836033 -3.7691540322814516 L 4.431683340457917 -3.7484291967689223 C 4.446844052683361 -3.7461435537330368 4.459394064760727 -3.7354522088275632 4.46406012476921 -3.72084744100101 C 4.468726184777692 -3.7062426731744584 4.464699715871328 -3.690255327954694 4.453672555855824 -3.679602952573461 L 4.353291787564366 -3.5826854857071795 L 4.376215544616685 -3.4452528894702437 C 4.378817861730697 -3.4300963357611445 4.37256647405972 -3.414780135944879 4.360101734319692 -3.4057732808937455 C 4.347636994579666 -3.3967664258426122 4.331132569736129 -3.3956395783780025 4.317559312542767 -3.4028686767907748 Z" fill="#8dc527" transform="matrix(1,0,0,1,0,0)" fill-rule="nonzero"></path></g><g clip-path="url(&quot;#SvgjsClipPath1000&quot;)"><path d=" M 5.723439799008116 -2.0521261479356836 L 5.600245219741327 -2.1176540098214547 L 5.476445937051096 -2.053335554782568 C 5.462849242580118 -2.046250923869853 5.446408103183136 -2.0475081926924394 5.434046742499271 -2.056577859596466 C 5.421685381815408 -2.0656475265004897 5.415551924146698 -2.0809534889527326 5.418229489285133 -2.096049605693005 L 5.442472599261323 -2.2334822019299425 L 5.3430263726242755 -2.3313891834891356 C 5.332095417965263 -2.342134260109158 5.328218105390221 -2.3581561788742693 5.333026659419293 -2.372710224685556 C 5.337835213448362 -2.3872642704968463 5.350494461206815 -2.3978226264252287 5.365675264484119 -2.399940562492117 L 5.503822510221488 -2.4193460450807747 L 5.566161935874561 -2.544189815502408 C 5.573019459465086 -2.557894498603586 5.587057174371646 -2.5665231295430093 5.60238163430468 -2.5664531548401186 C 5.617706094237721 -2.566383180137227 5.631664425136493 -2.557626713372211 5.638396508456696 -2.54385997727144 L 5.699526527262886 -2.418411503426368 L 5.837508853884767 -2.3976866679138364 C 5.8526709803906485 -2.3954245265732625 5.865230694741842 -2.3847439908745303 5.869899503135402 -2.3701422926236653 C 5.874568311528963 -2.3555405943727985 5.87053507844919 -2.339554559895178 5.859498069282677 -2.3289153967568765 L 5.7591173009912175 -2.231997929890591 L 5.782041058043537 -2.094565333653655 C 5.784699013671632 -2.079403696558855 5.778474877169078 -2.064054166416244 5.766007939151964 -2.0550255771580703 C 5.75354100113485 -2.045996987899895 5.737015837396784 -2.0448714150539855 5.723439799008119 -2.052126147935687 Z" fill="#009258" transform="matrix(1,0,0,1,0,0)" fill-rule="nonzero"></path></g><g clip-path="url(&quot;#SvgjsClipPath1000&quot;)"><path d=" M 6.466290468187997 -1.8566969960867628 L 6.358378393622752 -1.9140338752368118 L 6.24997156171106 -1.8576865107796703 C 6.238060838094574 -1.8514874878598828 6.223662272766344 -1.8525962802960585 6.212841089782624 -1.8605458224879854 C 6.202019906798903 -1.868495364679907 6.196657048496693 -1.8819038640369659 6.199011555026402 -1.895123149994606 L 6.220231147885388 -2.0154591312596724 L 6.133153854909665 -2.1011620982730257 C 6.123582935005919 -2.1105654049098526 6.120182684359042 -2.12458808339684 6.124383583832218 -2.1373308117988126 C 6.128584483305394 -2.1500735402007844 6.1396574682268135 -2.1593248223465737 6.1529441487677845 -2.161192656309317 L 6.273884833456288 -2.178179325204203 L 6.328528033720093 -2.287520698770309 C 6.334522362249814 -2.299529702820994 6.346818384125723 -2.307090548017354 6.360240129507796 -2.307020521519708 C 6.373661874889871 -2.306950495022063 6.385878333731361 -2.2992617586219604 6.391747027989082 -2.287190860539342 L 6.445290767482993 -2.177244783549793 L 6.566231452171493 -2.1591036808465196 C 6.579615067931097 -2.1571902290835103 6.590723943070852 -2.147788151957502 6.594823167578589 -2.1349048749331905 C 6.598922392086324 -2.122021597908879 6.595289144561027 -2.107928845389443 6.585472015644665 -2.0986333385022657 L 6.497515154053026 -2.013809940104829 L 6.517635286142114 -1.8932540666857909 C 6.519694132275086 -1.88006908030043 6.5141282100418465 -1.8668522855989673 6.503257345533605 -1.8591123231814262 C 6.492386481025363 -1.8513723607638886 6.478076033506224 -1.850437350448936 6.466290468187997 -1.8566969960867628 Z" fill="#8dc527" transform="matrix(1,0,0,1,0,0)" fill-rule="nonzero"></path></g><g clip-path="url(&quot;#SvgjsClipPath1000&quot;)"><path d=" M 7.723139047294014 -2.0515214445122414 L 7.615281945767269 -2.1089132967007833 L 7.506820140817078 -2.0524559861666516 C 7.494909417200591 -2.0462569632468677 7.4805108518723635 -2.0473657556830434 7.469689668888642 -2.0553152978749702 C 7.458868485904922 -2.0632648400668927 7.453505627602711 -2.0766733394239507 7.455860134132422 -2.089892625381591 L 7.4770797269914056 -2.2101736336081563 L 7.389837514900199 -2.2959865466985 C 7.380274140450784 -2.305410426749833 7.3768862986928365 -2.3194444194061097 7.381097083751746 -2.332193416828235 C 7.385307868810655 -2.344942414250359 7.396387851007447 -2.3541979215931326 7.409682781796814 -2.3560720777732866 L 7.530623466485315 -2.3730587466681747 L 7.585211693710626 -2.4823451471957876 C 7.591143463336637 -2.4943847834290365 7.603399613757274 -2.5020092834633756 7.61682119084512 -2.5020092834633756 C 7.630242767932966 -2.5020092834633756 7.642498918353603 -2.4943847834290365 7.648430687979616 -2.4823451471957876 L 7.701974427473525 -2.3723990702062396 L 7.822915112162027 -2.3542579675029636 C 7.83628235008228 -2.352321645342192 7.847372121685267 -2.3429260012114232 7.851478039750888 -2.3300584517180125 C 7.855583957816513 -2.3171909022246036 7.851985823483754 -2.303108480836155 7.842210648673693 -2.2937876251587124 L 7.754253787082051 -2.2089092537227817 L 7.774318946132643 -2.0884083533422357 C 7.7764378370997385 -2.075228214856047 7.770938850218681 -2.061980488889163 7.760109127941147 -2.054175178848106 C 7.749279405663618 -2.046369868807048 7.734972537994338 -2.0453429133525827 7.723139047294014 -2.0515214445122414 Z" fill="#44a4aa" transform="matrix(1,0,0,1,0,0)" fill-rule="nonzero"></path></g><g clip-path="url(&quot;#SvgjsClipPath1000&quot;)"><path d=" M 8.320586029655217 -2.4647537748774564 L 8.105696422179147 -2.579042721908092 L 7.889707353933183 -2.4667877773017652 C 7.865977982498197 -2.4544530483029368 7.837303492684805 -2.4566604795767413 7.815741644484024 -2.4724818357240705 C 7.794179796283241 -2.4883031918713963 7.783470543767395 -2.514994220878135 7.788117178794842 -2.5413312175006784 L 7.830446418435814 -2.7810686383763867 L 7.656951508946305 -2.951759922902661 C 7.637906045922917 -2.9705216389876226 7.631159516278932 -2.9984668414104956 7.6395471729279505 -3.023851460142441 C 7.647934829576974 -3.0492360788743857 7.6700028705293395 -3.0676602903695125 7.696477123624048 -3.0713812546672887 L 7.937478924385139 -3.1052446463800694 L 8.046270567566294 -3.322992851857869 C 8.058202899045341 -3.3469210971218066 8.082692193319865 -3.3619931344692784 8.10943027429958 -3.3618647543336255 C 8.136168355279292 -3.3617363741979744 8.16051179012997 -3.3464298715426093 8.17221379875782 -3.3223881484344266 L 8.278916466476176 -3.103595455225225 L 8.519643402044796 -3.0674781689341586 C 8.546103640192392 -3.0635392074114582 8.5680306206199 -3.0449147688404166 8.576199166097211 -3.019440576301892 C 8.584367711574522 -2.9939663837633654 8.57736007547059 -2.9660637813938786 8.55812452899114 -2.9474720259000673 L 8.383035401385282 -2.778374959490141 L 8.42300080037098 -2.538307700383462 C 8.427466348535457 -2.5118841162072156 8.416498817443268 -2.4852233678828126 8.394732507008108 -2.4695908808392018 C 8.372966196572943 -2.453958393795591 8.34419884987447 -2.4520816936584247 8.320586029655217 -2.4647537748774564 Z" fill="#8dc527" transform="matrix(1,0,0,1,0,0)" fill-rule="nonzero"></path></g></g></g><defs><clipPath id="SvgjsClipPath1003"><path d=" M 3.8283542429777704 -7.3734613011913135 h 5.515774790411648 v 7.1234613011913135 h -5.515774790411648 Z"></path></clipPath><clipPath id="SvgjsClipPath1000"><path d=" M 3.8283542429777704 -7.3734613011913135 L 9.344129033389418 -7.3734613011913135 L 9.344129033389418 -0.25 L 3.8283542429777704 -0.25 Z"></path></clipPath></defs></svg>